<svg id="icon_sprite" xmlns="http://www.w3.org/2000/svg" viewBox="0 0 480 192"><defs><style>.cls-1{fill:#fff;}.cls-2{fill:#999;}.cls-3{fill:#52acd3;}.cls-4{fill:#2b2b2b;}.cls-5{fill:#bc0000;}.cls-6{fill:#f35;}.cls-10,.cls-7,.cls-8,.cls-9{fill:none;stroke-linecap:round;stroke-width:2.41px;}.cls-7,.cls-8{stroke:#f35;}.cls-10,.cls-8{stroke-linejoin:round;}.cls-10,.cls-9{stroke:#999;}.cls-11{fill:#cbcbcb;}.cls-12{fill:#4d4d4d;}</style></defs><title>icon_sprite</title><path class="cls-1" d="M40.56,10.33H8.74A1.39,1.39,0,0,1,7.3,8.89h0A1.39,1.39,0,0,1,8.74,7.45H40.56A1.39,1.39,0,0,1,42,8.89h0A1.46,1.46,0,0,1,40.56,10.33Z"/><path class="cls-1" d="M40.56,25.94H8.74A1.39,1.39,0,0,1,7.3,24.5h0a1.39,1.39,0,0,1,1.44-1.44H40.56A1.39,1.39,0,0,1,42,24.5h0A1.46,1.46,0,0,1,40.56,25.94Z"/><path class="cls-1" d="M40.56,41.55H8.74A1.39,1.39,0,0,1,7.3,40.11h0a1.39,1.39,0,0,1,1.44-1.44H40.56A1.39,1.39,0,0,1,42,40.11h0A1.55,1.55,0,0,1,40.56,41.55Z"/><path class="cls-1" d="M61.5,34.06V25.6A1.48,1.48,0,0,1,63,24.06h0a1.49,1.49,0,0,1,1.54,1.54v8.46A1.49,1.49,0,0,1,63,35.6h0A1.66,1.66,0,0,1,61.5,34.06Z"/><path class="cls-1" d="M69.32,34.06v-14a1.48,1.48,0,0,1,1.54-1.54h0a1.48,1.48,0,0,1,1.54,1.54v14a1.48,1.48,0,0,1-1.54,1.54h0A1.56,1.56,0,0,1,69.32,34.06Z"/><path class="cls-1" d="M77,34.06V23.16a1.48,1.48,0,0,1,1.54-1.54h0a1.48,1.48,0,0,1,1.54,1.54v10.9a1.48,1.48,0,0,1-1.54,1.54h0A1.66,1.66,0,0,1,77,34.06Z"/><path class="cls-1" d="M84.84,34.06V17.77a1.49,1.49,0,0,1,1.54-1.54h0a1.49,1.49,0,0,1,1.54,1.54V34.06a1.48,1.48,0,0,1-1.54,1.54h0A1.56,1.56,0,0,1,84.84,34.06Z"/><path class="cls-1" d="M89.46,43.3H55.34a1.48,1.48,0,0,1-1.54-1.54h0a1.48,1.48,0,0,1,1.54-1.54H89.46A1.48,1.48,0,0,1,91,41.76h0A1.48,1.48,0,0,1,89.46,43.3Z"/><path class="cls-1" d="M53.8,41.76V7.64A1.48,1.48,0,0,1,55.34,6.1h0a1.48,1.48,0,0,1,1.54,1.54V41.76a1.48,1.48,0,0,1-1.54,1.54h0A1.56,1.56,0,0,1,53.8,41.76Z"/><path class="cls-1" d="M61.5,20.6a1.29,1.29,0,0,1-.83-2.27L70,10.5a1.28,1.28,0,0,1,1.49-.1l7,4.28,9.43-7.29a1.28,1.28,0,0,1,1.57,2L79.34,17.25a1.32,1.32,0,0,1-1.46.08L71,13.06,62.32,20.3A1.28,1.28,0,0,1,61.5,20.6Z"/><path class="cls-2" d="M419.71,82.21,410,72.5l9.71-9.71a1.27,1.27,0,1,0-1.8-1.8L408.2,70.7,398.49,61a1.27,1.27,0,0,0-1.8,1.8l9.71,9.71-9.71,9.71a1.27,1.27,0,0,0,1.8,1.8l9.71-9.71L417.91,84a1.27,1.27,0,1,0,1.8-1.8Z"/><path class="cls-3" d="M23.6,87.2c-10.2,0-13.9-5.9-13.9-11.5,0-2.8,2.2-6.6,6.4-10.9-1.1-1.2-2.2-2.6-.9-4.6a3,3,0,0,1,2.3-1.4,4.16,4.16,0,0,1,2.6.6,3.46,3.46,0,0,1,3.5-2.5,3.58,3.58,0,0,1,3.5,2.5,4,4,0,0,1,2.6-.6A3,3,0,0,1,32,60.2c1.3,2,.3,3.4-.9,4.6,4.2,4.3,6.4,8,6.4,10.9C37.5,81.3,33.8,87.2,23.6,87.2Z"/><path class="cls-1" d="M17.9,60.1h-.2a1.69,1.69,0,0,0-1.4.9c-.9,1.3-.2,2.1,1.1,3.5l.4.4-.4.4c-4.2,4.2-6.5,7.9-6.5,10.4S11.8,86,23.6,86s12.7-7.9,12.7-10.3c0-2.6-2.3-6.3-6.5-10.4l-.4-.4.4-.4c1.3-1.3,2-2.1,1.1-3.5a1.94,1.94,0,0,0-1.4-.9,3.24,3.24,0,0,0-2.5,1l-1,1V60.6a2.31,2.31,0,0,0-2.4-2.4,2.34,2.34,0,0,0-2.4,2.4v1.5l-1-1A3.45,3.45,0,0,0,17.9,60.1Z"/><path class="cls-3" d="M27.2,75.1H20a.6.6,0,1,1,0-1.2h7.2a.65.65,0,0,1,.6.6A.58.58,0,0,1,27.2,75.1Z"/><path class="cls-3" d="M27.2,77.5H20a.6.6,0,0,1,0-1.2h7.2a.65.65,0,0,1,.6.6A.58.58,0,0,1,27.2,77.5Z"/><path class="cls-3" d="M23.6,81.2a.65.65,0,0,1-.6-.6v-6a.6.6,0,0,1,1.2,0v6A.65.65,0,0,1,23.6,81.2Z"/><path class="cls-3" d="M23.3,75.1a.55.55,0,0,1-.5-.3l-3-4.2a.57.57,0,0,1,.9-.7l3,4.2a.61.61,0,0,1-.1.8C23.5,75.1,23.4,75.1,23.3,75.1Z"/><path class="cls-3" d="M23.9,75.1a.76.76,0,0,1-.4-.1.53.53,0,0,1-.1-.8l3-4.2a.57.57,0,0,1,.9.7l-3,4.2C24.3,75,24.1,75.1,23.9,75.1Z"/><path class="cls-4" d="M130.47,32a.6.6,0,0,0-.56-.56H108.65a.56.56,0,0,0,0,1.12h21.26C130.19,32.44,130.47,32.3,130.47,32Z"/><path class="cls-4" d="M108.65,37.48a.56.56,0,0,0,0,1.12H124a.56.56,0,1,0,0-1.12Z"/><path class="cls-4" d="M112.42,21.39,111.16,26a.93.93,0,0,0,.28,1,1.07,1.07,0,0,0,.7.28h.28l4.9-1.26c.14,0,.42-.14.42-.28L135.37,9.07a1,1,0,0,0,0-1.4l-3.64-3.36a1.12,1.12,0,0,0-1.54,0L112.56,21C112.56,21.11,112.42,21.25,112.42,21.39ZM129.63,7.81l1.4-1.4,2.1,2-1.4,1.4ZM113.68,24.88l.7-2.65,13.72-13,2.09,2-13.71,13Z"/><path class="cls-4" d="M134.67,13.41a1.08,1.08,0,0,0-1.12,1v28H104.87v-33h17.07a1.08,1.08,0,0,0,1.12-1,1,1,0,0,0-1.12-1h-18a1.08,1.08,0,0,0-1.12,1V43.5a1,1,0,0,0,1.12,1h30.92a1.08,1.08,0,0,0,1.12-1v-29A1.35,1.35,0,0,0,134.67,13.41Z"/><path class="cls-4" d="M183.68,37.16c-4.09-1.77-4.23-9.69-4.23-10V21.88a12.46,12.46,0,0,0-7.51-11.33,4.78,4.78,0,0,0-9.55,0,12.45,12.45,0,0,0-7.5,11.33V27.2c0,.14-.14,8.05-4.23,10a1.11,1.11,0,0,0-.55,1.23,1,1,0,0,0,1.09.82h10.37a7,7,0,0,0,1.64,3.14,5.37,5.37,0,0,0,4.09,1.77,5.91,5.91,0,0,0,4.1-1.77A6.38,6.38,0,0,0,173,39.21h10.37a1.2,1.2,0,0,0,1.09-.82C184.36,37.85,184.09,37.3,183.68,37.16Zm-5.46-3.82A11.77,11.77,0,0,0,180.13,37H154.07A11.77,11.77,0,0,0,156,33.34ZM167.17,8a2.49,2.49,0,0,1,2.45,1.91,14.47,14.47,0,0,0-2.45-.27,14.7,14.7,0,0,0-2.46.27A2.4,2.4,0,0,1,167.17,8ZM156.93,27.2V21.88a10.1,10.1,0,1,1,20.2,0V27.2a21.73,21.73,0,0,0,.41,4H156.39A16.68,16.68,0,0,0,156.93,27.2Zm10.24,14.74a3.81,3.81,0,0,1-3.55-2.73h7.1A4,4,0,0,1,167.17,41.94Z"/><path class="cls-4" d="M167.17,13.28a8.5,8.5,0,0,0-8.46,8.46,1.09,1.09,0,0,0,2.18,0,6.35,6.35,0,0,1,6.28-6.27,1.18,1.18,0,0,0,1.09-1.1C168.12,13.83,167.71,13.28,167.17,13.28Z"/><path class="cls-4" d="M232.1,7.52H199.46c-.66,0-1.19.26-1.19.93v6.37c0,.66.53.93,1.19.93h2V30.47a1.19,1.19,0,0,0,1.2,1.2h4.51l-5.57,8.75a1.18,1.18,0,0,0,.39,1.73,1.24,1.24,0,0,0,.67.13,1.62,1.62,0,0,0,1.06-.53l6.5-10.08h11.28L228,41.75a1.2,1.2,0,0,0,1.06.53,1.24,1.24,0,0,0,.67-.13,1.27,1.27,0,0,0,.39-1.73l-5.57-8.75h4.51a1.19,1.19,0,0,0,1.2-1.2V15.75h2c.66,0,1.19-.27,1.19-.93V8.45A1.18,1.18,0,0,0,232.1,7.52ZM228,29.28v.26H203.44V15.75H228Zm2.79-15.66H200.66V9.77h30.12Z"/><path class="cls-4" d="M210,26.76a1.44,1.44,0,0,0,.92-.4l2-2L217,25.43a1.33,1.33,0,0,0,1.32-.4l4.12-4.91a1.23,1.23,0,0,0-.13-1.72c-.27-.13-1.07-.4-1.46.13l-3.59,4.65-4-1.07c-.4-.13-.93-.26-1.19,0l-2.52,2.52c-.4.4-.67.8-.53,1.2a1.18,1.18,0,0,0,.79.79C209.68,26.76,209.81,26.76,210,26.76Z"/><path class="cls-4" d="M311.3,43a18.2,18.2,0,1,0-18.2-18.2A18.23,18.23,0,0,0,311.3,43Zm0-33.92a15.6,15.6,0,1,1-15.6,15.6A15.61,15.61,0,0,1,311.3,9.08Z"/><path class="cls-4" d="M308.2,32.85a1.24,1.24,0,0,0,0,2.47h8.42a1.24,1.24,0,1,0,0-2.47h-3V21.58a1.25,1.25,0,0,0-1.24-1.24H308.2a1.24,1.24,0,0,0,0,2.48h3v10Z"/><circle class="cls-4" cx="310.68" cy="16.01" r="2.1"/><path class="cls-4" d="M375.81,27.94a25.86,25.86,0,0,0-4.14-6.59,29.19,29.19,0,0,0-5.3-5l4-7.5a1,1,0,0,0-.13-1.16,4.8,4.8,0,0,0-3.36-1.55,7.74,7.74,0,0,0-3.1.78,7.67,7.67,0,0,1-1.94.51,1,1,0,0,1-.52-.13,16.09,16.09,0,0,0-4.78-1.16,6.66,6.66,0,0,0-4.79,2.2,1,1,0,0,0-.12,1.16L356,16.05a29.65,29.65,0,0,0-5.17,5,29.86,29.86,0,0,0-4.14,6.6,21.9,21.9,0,0,0-1.94,9,7.37,7.37,0,0,0,7.37,7.37h18.1a7.36,7.36,0,0,0,7.36-7.37A24.4,24.4,0,0,0,375.81,27.94ZM353.7,9.33a4.28,4.28,0,0,1,2.85-1.16,12.13,12.13,0,0,1,4.13,1,3.6,3.6,0,0,0,1.17.13,7.3,7.3,0,0,0,2.71-.77,5.26,5.26,0,0,1,2.33-.65,2.19,2.19,0,0,1,1.55.52l-3.88,7.11H358Zm16.55,33.09h-18.1a5.61,5.61,0,0,1-5.56-5.56,21.85,21.85,0,0,1,5.56-14.35,26.59,26.59,0,0,1,5.43-5h7.11a26.33,26.33,0,0,1,5.43,5,22.54,22.54,0,0,1,5.56,14.35A5.5,5.5,0,0,1,370.25,42.42Z"/><path class="cls-4" d="M358.1,34.15H360V32.86H358.1q-1.17,0-1.17-.78t1.17-.78h1l-2.58-4a1.19,1.19,0,0,1-.39-.65c0-.13-.13-.26-.13-.52a1.85,1.85,0,0,1,.26-.77.93.93,0,0,1,1.29,0,9.68,9.68,0,0,1,.65.9l2.71,4.27,2.46-4.14c.13-.13.13-.39.26-.51s.25-.26.25-.39.26-.26.39-.26.26-.13.52-.13a1,1,0,0,1,.65.26,1,1,0,0,1,.25.64c0,.26,0,.39-.13.52s-.12.39-.38.65l-2.46,4h1c.77,0,1.16.26,1.16.78s-.39.78-1.16.78h-1.94V34h1.94c.77,0,1.16.26,1.16.77s-.39.78-1.16.78h-1.94v.65c0,1.16-.39,1.68-1.17,1.68s-1.16-.52-1.16-1.68v-.65h-1.94c-.77,0-1.16-.26-1.16-.78A2.47,2.47,0,0,1,358.1,34.15Z"/><path class="cls-3" d="M230.45,172.11a25.86,25.86,0,0,0-4.14-6.59,28.86,28.86,0,0,0-5.3-5l4-7.49a1,1,0,0,0-.13-1.17,4.78,4.78,0,0,0-3.36-1.55,7.78,7.78,0,0,0-3.1.78,7.17,7.17,0,0,1-1.94.51,1,1,0,0,1-.52-.13,16.09,16.09,0,0,0-4.78-1.16,6.62,6.62,0,0,0-4.78,2.2,1,1,0,0,0-.13,1.16l4.39,6.59a31.47,31.47,0,0,0-9.3,11.64,21.74,21.74,0,0,0-1.94,9,7.36,7.36,0,0,0,7.36,7.37h18.1a7.36,7.36,0,0,0,7.37-7.37A24.42,24.42,0,0,0,230.45,172.11Zm-22.1-18.61a4.23,4.23,0,0,1,2.84-1.16,12.23,12.23,0,0,1,4.14,1,3.51,3.51,0,0,0,1.16.13,7.3,7.3,0,0,0,2.71-.77,5.26,5.26,0,0,1,2.33-.65,2.18,2.18,0,0,1,1.55.52l-3.88,7.11h-6.59Zm16.54,33.09h-18.1a5.59,5.59,0,0,1-5.55-5.56,21.84,21.84,0,0,1,5.55-14.34,26,26,0,0,1,5.43-5h7.11a25.73,25.73,0,0,1,5.43,5A22.49,22.49,0,0,1,230.32,181,5.49,5.49,0,0,1,224.89,186.59Z"/><path class="cls-3" d="M212.74,178.32h1.94V177h-1.94c-.78,0-1.16-.26-1.16-.78s.38-.77,1.16-.77h1l-2.58-4a1.19,1.19,0,0,1-.39-.65c0-.13-.13-.26-.13-.51a1.85,1.85,0,0,1,.26-.78,1,1,0,0,1,.65-.26,1,1,0,0,1,.64.26,9.68,9.68,0,0,1,.65.9l2.71,4.27,2.46-4.14c.13-.13.13-.38.26-.51s.26-.26.26-.39.25-.26.38-.26.26-.13.52-.13a.89.89,0,0,1,.91.91c0,.25,0,.38-.13.51s-.13.39-.39.65l-2.46,4h1c.77,0,1.16.25,1.16.77s-.39.78-1.16.78h-1.94v1.29h1.94c.77,0,1.16.26,1.16.78s-.39.77-1.16.77h-1.94v.65c0,1.16-.39,1.68-1.16,1.68s-1.17-.52-1.17-1.68v-.65h-1.94c-.77,0-1.16-.26-1.16-.77A2.45,2.45,0,0,1,212.74,178.32Z"/><rect class="cls-4" x="245.52" y="7.52" width="19.15" height="3.12"/><rect class="cls-4" x="245.52" y="15.26" width="27.58" height="3.12"/><rect class="cls-4" x="245.52" y="22.87" width="33.96" height="3.12"/><rect class="cls-4" x="245.52" y="30.61" width="27.58" height="3.12"/><rect class="cls-4" x="245.52" y="38.36" width="20.11" height="3.12"/><path class="cls-1" d="M399.4,25.3l15.2-15.2a1.34,1.34,0,0,0,0-2,1.34,1.34,0,0,0-2,0L396.4,24.3a1.34,1.34,0,0,0,0,2l16.2,16.2a1.45,1.45,0,0,0,2,0,1.34,1.34,0,0,0,0-2Z"/><path class="cls-3" d="M445.8,29a.71.71,0,0,1-.6-.3.85.85,0,0,1,0-1.3l9.1-9.1a.92.92,0,1,1,1.3,1.3l-9.1,9.1A.83.83,0,0,1,445.8,29Z"/><path class="cls-3" d="M464,29a.71.71,0,0,1-.6-.3l-9.1-9.1a.92.92,0,0,1,1.3-1.3l9.1,9.1a.85.85,0,0,1,0,1.3A.83.83,0,0,1,464,29Z"/><path class="cls-4" d="M35.18,161a.9.9,0,0,1,.75.38,1.06,1.06,0,0,1,0,1.61L24.62,174.28a1.06,1.06,0,0,1-1.62,0,1,1,0,0,1,0-1.61l11.31-11.31A1,1,0,0,1,35.18,161Z"/><path class="cls-4" d="M12.56,161a.9.9,0,0,1,.75.38l11.31,11.31A1.14,1.14,0,1,1,23,174.28L11.69,163a1,1,0,0,1,0-1.61A1,1,0,0,1,12.56,161Z"/><path class="cls-3" d="M84.69,157.26a1.19,1.19,0,0,1,1,.5,1.43,1.43,0,0,1,0,2.18L70.47,175.17A1.54,1.54,0,0,1,68.29,173l15.23-15.23A1.38,1.38,0,0,1,84.69,157.26Z"/><path class="cls-3" d="M60.28,163.31a1.18,1.18,0,0,1,1,.5L70.47,173a1.54,1.54,0,0,1-2.18,2.18L59.11,166a1.42,1.42,0,0,1,0-2.17A1.38,1.38,0,0,1,60.28,163.31Z"/><path class="cls-3" d="M17,108.84a.87.87,0,0,1,.38-.74,1,1,0,0,1,1.61,0l11.31,11.31A1.14,1.14,0,1,1,28.66,121L17.35,109.71A1,1,0,0,1,17,108.84Z"/><path class="cls-3" d="M17,131.46a.87.87,0,0,1,.38-.74l11.31-11.31A1.14,1.14,0,0,1,30.27,121L19,132.33a1,1,0,0,1-1.61,0A1,1,0,0,1,17,131.46Z"/><path class="cls-2" d="M65.56,108.84a.87.87,0,0,1,.38-.74,1,1,0,0,1,1.61,0l11.31,11.31A1.14,1.14,0,1,1,77.25,121L65.94,109.71A1,1,0,0,1,65.56,108.84Z"/><path class="cls-2" d="M65.56,131.46a.87.87,0,0,1,.38-.74l11.31-11.31A1.14,1.14,0,0,1,78.86,121L67.55,132.33a1,1,0,0,1-1.61,0A1,1,0,0,1,65.56,131.46Z"/><g id="图层_2" data-name="图层 2"><g id="footer"><circle class="cls-2" cx="418.04" cy="167.82" r="1.73"/><circle class="cls-2" cx="408.4" cy="167.82" r="1.73"/><circle class="cls-2" cx="398.76" cy="168.01" r="1.73"/><path class="cls-2" d="M408.4,187.82a20,20,0,1,1,20-20A20,20,0,0,1,408.4,187.82Zm0-38.55A18.55,18.55,0,1,0,427,167.82,18.57,18.57,0,0,0,408.4,149.27Z"/></g></g><g id="图层_2-2" data-name="图层 2"><g id="footer-2" data-name="footer"><path class="cls-5" d="M456,187.82a20,20,0,1,1,20-20A20,20,0,0,1,456,187.82Zm0-38.55a18.55,18.55,0,1,0,18.55,18.55A18.57,18.57,0,0,0,456,149.27Z"/><path class="cls-5" d="M455.42,155.67h.77a.83.83,0,0,1,.77.78V174a.83.83,0,0,1-.77.77h-.77a.84.84,0,0,1-.77-.77V156.25C454.65,155.87,455,155.67,455.42,155.67Z"/><circle class="cls-5" cx="455.81" cy="178.61" r="1.35"/></g></g><path class="cls-2" d="M373.7,162.12a18.59,18.59,0,0,0-26.2,0l-4.8,4.8,4.9,4.9a18.59,18.59,0,0,0,26.2,0l4.8-4.8Zm-.8,8.9a17,17,0,0,1-12.2,5,17.25,17.25,0,0,1-12.2-5l-4.1-4.1,4-4a17,17,0,0,1,12.2-5,17.25,17.25,0,0,1,12.2,5l4.1,4.1Z"/><path class="cls-2" d="M360.6,159.12a7.9,7.9,0,1,0,7.9,7.9A7.85,7.85,0,0,0,360.6,159.12Zm0,4.9a3,3,0,0,0-3,3,.6.6,0,1,1-1.2,0,4.27,4.27,0,0,1,4.3-4.3.53.53,0,0,1,.6.6A.75.75,0,0,1,360.6,164Z"/><path class="cls-2" d="M324.7,162.32a16.61,16.61,0,0,0-4.3-3.2l5.8-5.8a.64.64,0,0,0-.9-.9l-6.1,6.1a18.48,18.48,0,0,0-20.8,3.7l-4.8,4.9,4.9,4.9a21,21,0,0,0,4.1,3.1l-5.5,5.5a.75.75,0,0,0,0,.9.5.5,0,0,0,.8,0l5.8-5.8a17.62,17.62,0,0,0,7.9,1.8,18.46,18.46,0,0,0,13.1-5.4l4.8-4.8Zm-21.2,11.9a17.3,17.3,0,0,1-4.1-3l-4.1-4.1,4-4a17,17,0,0,1,12.2-5,17.23,17.23,0,0,1,6.8,1.4Zm20.4-3a17.28,17.28,0,0,1-19.2,3.5l14.8-14.8a16.61,16.61,0,0,1,4.3,3.2l4.1,4.1Z"/><path class="cls-2" d="M311.6,159.32a7.85,7.85,0,0,0-7.9,7.9,7.63,7.63,0,0,0,1.2,4.2l10.9-10.9A7.63,7.63,0,0,0,311.6,159.32Z"/><path class="cls-2" d="M307.3,173.82a7.87,7.87,0,0,0,10.9-10.9Z"/><path id="购彩大厅" class="cls-6" d="M150.68,70.73a1.24,1.24,0,0,1-1.07-.54,1.3,1.3,0,0,1,.08-1.83l.06,0,15.77-13a4.19,4.19,0,0,1,4.95,0l15.77,12.88a1.32,1.32,0,0,1,.18,1.87,1.34,1.34,0,0,1-1.87.18l-.05,0L168.86,57.58a1.68,1.68,0,0,0-1.6,0L151.49,70.46a1,1,0,0,1-.8.27h0Zm30.08,18.78h-8.69a1.28,1.28,0,0,1-1.34-1.18V81.87c0-.94-1.6-1.88-2.8-1.88s-2.68.8-2.68,1.88v6.3a1.26,1.26,0,0,1-1.17,1.34h-8.59A3.35,3.35,0,0,1,152,86.3V73.41a1.34,1.34,0,1,1,2.67-.08V86.16a.69.69,0,0,0,.68.68h7.34v-5c0-2.69,2.81-4.57,5.35-4.57s5.48,1.88,5.48,4.57v5h7.35c.4,0,.67,0,.67-.81V73.41a1.34,1.34,0,0,1,2.68,0V86.16a3.35,3.35,0,0,1-3.34,3.35Z"/><path id="圆角矩形_6" data-name="圆角矩形 6" class="cls-7" d="M256,54.57h-2.41a6,6,0,0,0-6,6h0V82.94a6,6,0,0,0,6,6h21.74a6,6,0,0,0,6-6h0V60.6a6,6,0,0,0-6-6h-2.41"/><path id="圆角矩形_6_拷贝_4" data-name="圆角矩形 6 拷贝 4" class="cls-7" d="M261.4,54.57h5.93"/><path id="圆角矩形_6_拷贝" data-name="圆角矩形 6 拷贝" class="cls-8" d="M255.77,63.62h17.6"/><path id="圆角矩形_6_拷贝_2" data-name="圆角矩形 6 拷贝 2" class="cls-8" d="M255.77,70.87h17.6"/><path id="圆角矩形_6_拷贝_3" data-name="圆角矩形 6 拷贝 3" class="cls-8" d="M255.77,78.11h17.6"/><path id="椭圆_2" data-name="椭圆 2" class="cls-7" d="M229.33,60.35a17.45,17.45,0,1,1-5.18-4.08"/><path id="形状_4" data-name="形状 4" class="cls-7" d="M208.61,80.55h15"/><path id="_08" data-name=" 08" class="cls-6" d="M213.34,66.09c0-1.38-.66-2.08-1.88-2.11s-1.85.73-1.87,2.11v5.84c0,1.4.65,2.1,1.87,2.11s1.85-.71,1.88-2.11ZM207.68,66A3.8,3.8,0,0,1,208.86,63a3.71,3.71,0,0,1,2.6-1,3.77,3.77,0,0,1,2.65,1A3.92,3.92,0,0,1,215.25,66V72A3.89,3.89,0,0,1,214.11,75a3.79,3.79,0,0,1-6.42-2.91V66Zm11.15,0a1.84,1.84,0,0,0,.6,1.46,1.87,1.87,0,0,0,1.31.52,1.9,1.9,0,0,0,1.34-.52,2.17,2.17,0,0,0,0-3,2,2,0,0,0-1.34-.49,2,2,0,0,0-1.31.49,1.91,1.91,0,0,0-.6,1.49Zm-2.17,5.91a3.62,3.62,0,0,1,1.63-3.09,3.87,3.87,0,0,1-1-1.24,2.87,2.87,0,0,1-.41-1.54,4,4,0,0,1,1.13-2.85A3.58,3.58,0,0,1,220.74,62a3.68,3.68,0,0,1,2.73,1.13A4,4,0,0,1,224.56,66a3,3,0,0,1-.37,1.55,4.27,4.27,0,0,1-1,1.24,3.57,3.57,0,0,1,1.63,3.09,4,4,0,0,1-1.19,3,4,4,0,0,1-2.9,1.16,4.06,4.06,0,0,1-4.07-4v-.08Zm1.91,0a2.14,2.14,0,0,0,.66,1.55,2,2,0,0,0,1.5.63,2,2,0,0,0,1.53-.63,2.21,2.21,0,0,0,0-3.12,2.16,2.16,0,0,0-3,0,2.12,2.12,0,0,0-.66,1.57Z"/><path id="个人中心" class="cls-6" d="M312.5,76.59c5.24,0,9.51-4.15,9.51-10.78S317.74,54.4,312.5,54.4a7.94,7.94,0,0,0-6.8,3A13.71,13.71,0,0,0,303,65.81c0,6.63,4.27,10.78,9.51,10.78Zm0-20c4.08,0,7.4,3.79,7.4,9.22s-3.32,8.6-7.4,8.6-7.4-3.17-7.4-8.6,3.32-9.22,7.4-9.22Zm7.4,19.07a1.1,1.1,0,0,0,0,2.19c4.08,0,8.6,4.06,8.6,8.28a1.07,1.07,0,0,1-1.06,1.09H297.55a1.07,1.07,0,0,1-1.05-1.09c0-4.22,4.52-8.28,8.6-8.28a1.1,1.1,0,0,0,0-2.19c-5.24,0-10.72,5-10.72,10.47a3.23,3.23,0,0,0,3.17,3.28h29.9a3.23,3.23,0,0,0,3.17-3.28c0-5.43-5.48-10.47-10.72-10.47Z"/><path id="购彩大厅-2" data-name="购彩大厅" class="cls-2" d="M150.68,118.73a1.24,1.24,0,0,1-1.07-.54,1.3,1.3,0,0,1,.08-1.83l.06,0,15.77-13a4.19,4.19,0,0,1,4.95,0l15.77,12.88a1.32,1.32,0,0,1,.18,1.87,1.34,1.34,0,0,1-1.87.18l-.05,0-15.64-12.61a1.68,1.68,0,0,0-1.6,0l-15.77,12.88a1,1,0,0,1-.8.27h0Zm30.08,18.78h-8.69a1.28,1.28,0,0,1-1.34-1.18v-6.46c0-.94-1.6-1.88-2.8-1.88s-2.68.8-2.68,1.88v6.3a1.26,1.26,0,0,1-1.17,1.34h-8.59A3.35,3.35,0,0,1,152,134.3V121.41a1.34,1.34,0,1,1,2.67-.08v12.83a.69.69,0,0,0,.68.68h7.34v-5c0-2.69,2.81-4.57,5.35-4.57s5.48,1.88,5.48,4.57v5h7.35c.4,0,.67,0,.67-.81V121.41a1.34,1.34,0,0,1,2.68,0v12.75a3.35,3.35,0,0,1-3.34,3.35Z"/><path id="圆角矩形_6-2" data-name="圆角矩形 6" class="cls-9" d="M256,103h-2.41a6,6,0,0,0-6,6h0v22.34a6,6,0,0,0,6,6h21.74a6,6,0,0,0,6-6h0V109.05a6,6,0,0,0-6-6h-2.41"/><path id="圆角矩形_6_拷贝_4-2" data-name="圆角矩形 6 拷贝 4" class="cls-9" d="M261.4,103h5.93"/><path id="圆角矩形_6_拷贝-2" data-name="圆角矩形 6 拷贝" class="cls-10" d="M255.77,112.07h17.6"/><path id="圆角矩形_6_拷贝_2-2" data-name="圆角矩形 6 拷贝 2" class="cls-10" d="M255.77,119.32h17.6"/><path id="圆角矩形_6_拷贝_3-2" data-name="圆角矩形 6 拷贝 3" class="cls-10" d="M255.77,126.56h17.6"/><path id="椭圆_2-2" data-name="椭圆 2" class="cls-9" d="M229.33,108.8a17.45,17.45,0,1,1-5.18-4.08"/><path id="形状_4-2" data-name="形状 4" class="cls-9" d="M208.61,129h15"/><path id="_08-2" data-name=" 08" class="cls-2" d="M213.34,114.54c0-1.38-.66-2.08-1.88-2.11s-1.85.73-1.87,2.11v5.84c0,1.4.65,2.1,1.87,2.11s1.85-.71,1.88-2.11Zm-5.66-.12a3.8,3.8,0,0,1,1.18-2.93,3.71,3.71,0,0,1,2.6-1,3.77,3.77,0,0,1,2.65,1,3.92,3.92,0,0,1,1.14,2.93v6.07a3.89,3.89,0,0,1-1.14,2.92,3.79,3.79,0,0,1-6.42-2.91v-6.08Zm11.15,0a1.84,1.84,0,0,0,.6,1.46,1.87,1.87,0,0,0,1.31.52,1.9,1.9,0,0,0,1.34-.52,2.17,2.17,0,0,0,0-3,2,2,0,0,0-1.34-.49,2,2,0,0,0-1.31.49,1.91,1.91,0,0,0-.6,1.49Zm-2.17,5.91a3.62,3.62,0,0,1,1.63-3.09,3.87,3.87,0,0,1-1-1.24,2.87,2.87,0,0,1-.41-1.54,4,4,0,0,1,1.13-2.85,3.58,3.58,0,0,1,2.69-1.13,3.68,3.68,0,0,1,2.73,1.13,4,4,0,0,1,1.09,2.84,3,3,0,0,1-.37,1.55,4.27,4.27,0,0,1-1,1.24,3.57,3.57,0,0,1,1.63,3.09,4,4,0,0,1-1.19,3,4,4,0,0,1-2.9,1.16,4.06,4.06,0,0,1-4.07-4v-.08Zm1.91,0a2.14,2.14,0,0,0,.66,1.55,2,2,0,0,0,1.5.63,2,2,0,0,0,1.53-.63,2.21,2.21,0,0,0,0-3.12,2.16,2.16,0,0,0-3,0,2.12,2.12,0,0,0-.66,1.57Z"/><path id="个人中心-2" data-name="个人中心" class="cls-2" d="M312.5,124.59c5.24,0,9.51-4.15,9.51-10.78s-4.27-11.41-9.51-11.41a7.94,7.94,0,0,0-6.8,3,13.71,13.71,0,0,0-2.71,8.42c0,6.63,4.27,10.78,9.51,10.78Zm0-20c4.08,0,7.4,3.79,7.4,9.22s-3.32,8.6-7.4,8.6-7.4-3.17-7.4-8.6,3.32-9.22,7.4-9.22Zm7.4,19.07a1.1,1.1,0,0,0,0,2.19c4.08,0,8.6,4.06,8.6,8.28a1.07,1.07,0,0,1-1.06,1.09H297.55a1.07,1.07,0,0,1-1.05-1.09c0-4.22,4.52-8.28,8.6-8.28a1.1,1.1,0,0,0,0-2.19c-5.24,0-10.72,5-10.72,10.47a3.23,3.23,0,0,0,3.17,3.28h29.9a3.23,3.23,0,0,0,3.17-3.28c0-5.43-5.48-10.47-10.72-10.47Z"/><path class="cls-1" d="M99,72.4a21.05,21.05,0,1,0,21-21.06A21.08,21.08,0,0,0,99,72.4Zm8.8,14.42A58.4,58.4,0,0,1,114.31,83a1.39,1.39,0,0,0,.78-1.24V79.1a1.15,1.15,0,0,0-.15-.54,8.93,8.93,0,0,1-1.1-3.23,1,1,0,0,0-.76-.85,6.07,6.07,0,0,1-.77-1.89,4.67,4.67,0,0,1-.26-1.75,1,1,0,0,0,1-1.41,6,6,0,0,1-.15-3.6,7,7,0,0,1,1.89-3.28,9.22,9.22,0,0,1,1.77-1.47l0,0a6.47,6.47,0,0,1,1.67-.86h0a5.31,5.31,0,0,1,1.5-.27,6.19,6.19,0,0,1,3.8.8,4.61,4.61,0,0,1,1.72,1.55,1,1,0,0,0,.86.57,1.64,1.64,0,0,1,.9.64c.5.67,1.21,2.39.34,6.57a1.05,1.05,0,0,0,.56,1.15,4.09,4.09,0,0,1-.25,1.83A6.64,6.64,0,0,1,127,74.8a1.05,1.05,0,0,0-1.18.85,9.73,9.73,0,0,1-.8,2.59,1.07,1.07,0,0,0-.11.46v3.06A1.37,1.37,0,0,0,125.7,83a58.44,58.44,0,0,1,6.56,3.83,18.86,18.86,0,0,1-24.51,0ZM120,53.46a18.92,18.92,0,0,1,13.82,31.86,61,61,0,0,0-6.78-4V78.92a11.11,11.11,0,0,0,.69-2c.84-.32,1.44-1.31,2-3.28.51-1.81.47-3.08-.14-3.8.63-3.47.35-6-.85-7.6a3.71,3.71,0,0,0-1.85-1.35,6.8,6.8,0,0,0-2.26-2,8.33,8.33,0,0,0-5-1.08,7.92,7.92,0,0,0-2,.39h0a8.58,8.58,0,0,0-2.17,1.11,12,12,0,0,0-2.16,1.77,8.93,8.93,0,0,0-2.4,4.24,8,8,0,0,0-.1,3.76,2.24,2.24,0,0,0-.32.3c-.62.75-.67,1.95-.15,3.79a5.83,5.83,0,0,0,1.57,3A10.93,10.93,0,0,0,113,79.37v1.92a62.75,62.75,0,0,0-6.79,4A18.92,18.92,0,0,1,120,53.46Z"/><path class="cls-3" d="M147.21,168.28a21.05,21.05,0,1,0,21-21.06A21.08,21.08,0,0,0,147.21,168.28ZM156,182.7a58.4,58.4,0,0,1,6.56-3.84,1.39,1.39,0,0,0,.78-1.24V175a1.15,1.15,0,0,0-.15-.54,8.93,8.93,0,0,1-1.1-3.23,1,1,0,0,0-.76-.85,6.07,6.07,0,0,1-.77-1.89,4.67,4.67,0,0,1-.26-1.75,1,1,0,0,0,1-1.41,6,6,0,0,1-.15-3.6,7,7,0,0,1,1.89-3.28,9.22,9.22,0,0,1,1.77-1.47l0,0a6.47,6.47,0,0,1,1.67-.86h0a5.31,5.31,0,0,1,1.5-.27,6.19,6.19,0,0,1,3.8.8,4.61,4.61,0,0,1,1.72,1.55,1,1,0,0,0,.86.57,1.64,1.64,0,0,1,.9.64c.5.67,1.21,2.4.34,6.57a1.05,1.05,0,0,0,.56,1.15,4.09,4.09,0,0,1-.25,1.83,6.64,6.64,0,0,1-.68,1.76,1.05,1.05,0,0,0-1.18.85,9.73,9.73,0,0,1-.8,2.59,1.07,1.07,0,0,0-.11.46v3.06a1.37,1.37,0,0,0,.78,1.24,58.44,58.44,0,0,1,6.56,3.83,18.86,18.86,0,0,1-24.51,0Zm12.25-33.36a18.93,18.93,0,0,1,13.83,31.86,61.78,61.78,0,0,0-6.79-4V174.8a11.11,11.11,0,0,0,.69-2c.84-.32,1.44-1.31,2-3.28.51-1.81.47-3.08-.14-3.8.63-3.47.35-6-.85-7.6a3.71,3.71,0,0,0-1.85-1.35,6.8,6.8,0,0,0-2.26-2,8.33,8.33,0,0,0-5-1.08,7.92,7.92,0,0,0-2,.39h0a8.58,8.58,0,0,0-2.17,1.11,11.64,11.64,0,0,0-2.16,1.78,8.85,8.85,0,0,0-2.4,4.23A8,8,0,0,0,159,165a2.24,2.24,0,0,0-.32.3c-.62.75-.67,2-.15,3.79a5.83,5.83,0,0,0,1.57,3.05,10.93,10.93,0,0,0,1.11,3.16v1.92a62.75,62.75,0,0,0-6.79,4,18.92,18.92,0,0,1,13.82-31.86Z"/><path class="cls-1" d="M134.66,156.18a1,1,0,0,0-.85-.54H104.75a.92.92,0,0,0-.84.54.93.93,0,0,0,.12,1l11.17,13.54v12.49a.94.94,0,0,0,.44.8,1,1,0,0,0,.5.14.86.86,0,0,0,.41-.1l6.28-3.11a.93.93,0,0,0,.52-.84v-9.38l11.17-13.55A.94.94,0,0,0,134.66,156.18Zm-13,13.61a.93.93,0,0,0-.21.59l0,9.14-4.4,2.18V170.38a.93.93,0,0,0-.21-.59l-10.12-12.27h25.08Z"/><path class="cls-2" d="M407.63,128.4a1.43,1.43,0,0,0-1.43,1.43v1a1.44,1.44,0,0,0,2.87,0v-1A1.44,1.44,0,0,0,407.63,128.4Z"/><path class="cls-2" d="M408.11,140a20,20,0,1,0-20-20A20,20,0,0,0,408.11,140Zm0-37.13A17.13,17.13,0,1,1,391,120,17.14,17.14,0,0,1,408.11,102.89Z"/><path class="cls-2" d="M401.89,116.43h0a1.4,1.4,0,0,0,1.44-1.38,5.79,5.79,0,0,1,.6-2.28,3.9,3.9,0,0,1,3.85-2.15,4.52,4.52,0,0,1,3.75,1.41,3.38,3.38,0,0,1,.48,3c-.36,1.41-1.58,2.63-2.75,3.83-1.43,1.48-2.94,3-2.94,5a1.44,1.44,0,1,0,2.87,0c0-.86,1-1.91,2.13-3,1.36-1.39,2.92-3,3.47-5.12a6.19,6.19,0,0,0-1-5.43c-.89-1.15-2.66-2.54-6-2.54a6.65,6.65,0,0,0-6.41,3.73,8.86,8.86,0,0,0-.91,3.57A1.39,1.39,0,0,0,401.89,116.43Z"/><path class="cls-2" d="M360,100.06a20,20,0,1,0,20,20A20,20,0,0,0,360,100.06Zm0,37.53a17.54,17.54,0,1,1,17.54-17.53A17.55,17.55,0,0,1,360,137.59Z"/><circle class="cls-2" cx="360.34" cy="112.08" r="2.06"/><path class="cls-2" d="M359.8,117.5a1.23,1.23,0,0,0-1.23,1.23v10.46a1.23,1.23,0,1,0,2.46,0V118.73A1.23,1.23,0,0,0,359.8,117.5Z"/><path class="cls-2" d="M472.08,109.76l-10.33-9.54a1.35,1.35,0,0,0-.81-.43H450.3c-3.26,0-5.51,1.7-5.51,4.15V107h-2c-3,0-5.21,1.89-5.21,4.45V135.6c0,2.71,2.46,4.61,5.21,4.61H460.4a4.65,4.65,0,0,0,4.9-4.61V133h2.63a4.65,4.65,0,0,0,4.61-4.9V111s.14,0,.14-.06.08,0,.08-.05A1.15,1.15,0,0,0,472.08,109.76Zm-10.4-6,6.72,5.63h-6.72Zm1.21,31.79a2.25,2.25,0,0,1-2.49,2.19H442.76c-1.4,0-2.8-.83-2.8-2.19V111.48c0-1.57,1.87-2,2.8-2H452v9.28c0,.67.84,1,1.51,1h9.35v15.9Zm-1.38-18.31h-7.07v-6Zm6.42,13.27H465.3v-12a1.1,1.1,0,0,0-.24-.89l-10.52-9.69a1.14,1.14,0,0,0-1-.68s0-.11-.05-.11,0-.12-.05-.12h-6.2v-3.09c0-1.24,1.82-1.73,3.1-1.73h9v8.67c0,.67.84,1,1.5,1h9.35v16.21A2.24,2.24,0,0,1,467.93,130.56Z"/><path class="cls-3" d="M131.41,108.18a5.78,5.78,0,0,0-8.18,0l-15,15a.73.73,0,0,0-.21.43l-1.11,8.24a.72.72,0,0,0,.21.63.76.76,0,0,0,.53.23h.1l5-.67a.76.76,0,1,0-.2-1.5l-4,.54.78-5.75,6,6.05a.77.77,0,0,0,.53.22.73.73,0,0,0,.54-.22l15-15a5.78,5.78,0,0,0,0-8.19ZM123.52,110l2.52,2.52-13.7,13.69-2.52-2.52Zm-7.64,19.74-2.46-2.46,13.69-13.7,2.47,2.47ZM130.63,115l-6-6a4.28,4.28,0,0,1,6,6Z"/><circle class="cls-11" cx="264.1" cy="167.41" r="13.15"/><path class="cls-1" d="M269.88,172.27,265,167.41l4.86-4.87a.64.64,0,1,0-.9-.9l-4.86,4.87-4.86-4.87a.64.64,0,1,0-.9.9l4.86,4.87-4.86,4.86a.64.64,0,0,0,.9.9l4.86-4.86,4.86,4.86a.64.64,0,0,0,.9-.9Z"/><rect class="cls-12" x="349.7" y="65.56" width="21.28" height="3.71"/><rect class="cls-12" x="349.7" y="74.28" width="21.28" height="3.71"/></svg>