<?xml version="1.0" encoding="utf-8"?>
<!-- Generator: Adobe Illustrator 21.1.0, SVG Export Plug-In . SVG Version: 6.00 Build 0)  -->
<svg version="1.1" id="icon_x5F_sprite" xmlns="http://www.w3.org/2000/svg" xmlns:xlink="http://www.w3.org/1999/xlink" x="0px"
	 y="0px" width="480px" height="240px" viewBox="0 0 480 240" style="enable-background:new 0 0 480 240;" xml:space="preserve">
<style type="text/css">
	.st0{fill:#FFFFFF;}
	.st1{fill:none;stroke:#FFFFFF;stroke-width:2;stroke-linecap:round;stroke-linejoin:round;stroke-miterlimit:10;}
	.st2{fill:#52ACD3;}
	.st3{fill:#CBCBCB;}
	.st4{fill:#ACACAC;}
	.st5{fill:none;stroke:#ACACAC;stroke-width:0.75;stroke-miterlimit:10;}
	.st6{fill:none;stroke:#B91010;stroke-width:0.75;stroke-miterlimit:10;}
	.st7{fill:#B91010;}
	.st8{fill:#277CA5;}
</style>
<g id="參考線">
</g>
<g>
	<path class="st0" d="M37.9,12.7H11.4c-0.7,0-1.2-0.5-1.2-1.2v0c0-0.7,0.5-1.2,1.2-1.2h26.5c0.7,0,1.2,0.5,1.2,1.2v0
		C39.1,12.2,38.5,12.7,37.9,12.7z"/>
	<path class="st0" d="M37.9,25.7H11.4c-0.7,0-1.2-0.5-1.2-1.2v0c0-0.7,0.5-1.2,1.2-1.2l26.5,0c0.7,0,1.2,0.5,1.2,1.2v0
		C39.1,25.2,38.5,25.7,37.9,25.7z"/>
	<path class="st0" d="M37.9,38.7H11.4c-0.7,0-1.2-0.5-1.2-1.2l0,0c0-0.7,0.5-1.2,1.2-1.2h26.5c0.7,0,1.2,0.5,1.2,1.2l0,0
		C39.1,38.1,38.5,38.7,37.9,38.7z"/>
</g>
<g>
	<path class="st0" d="M63.9,32v-6.6c0-0.7,0.5-1.2,1.2-1.2l0,0c0.7,0,1.2,0.5,1.2,1.2V32c0,0.7-0.5,1.2-1.2,1.2l0,0
		C64.5,33.2,63.9,32.6,63.9,32z"/>
	<path class="st0" d="M70,32V21.1c0-0.7,0.5-1.2,1.2-1.2l0,0c0.7,0,1.2,0.5,1.2,1.2V32c0,0.7-0.5,1.2-1.2,1.2l0,0
		C70.5,33.2,70,32.6,70,32z"/>
	<path class="st0" d="M76,32v-8.5c0-0.7,0.5-1.2,1.2-1.2l0,0c0.7,0,1.2,0.5,1.2,1.2V32c0,0.7-0.5,1.2-1.2,1.2l0,0
		C76.6,33.2,76,32.6,76,32z"/>
	<path class="st0" d="M82.1,32V19.3c0-0.7,0.5-1.2,1.2-1.2l0,0c0.7,0,1.2,0.5,1.2,1.2V32c0,0.7-0.5,1.2-1.2,1.2l0,0
		C82.6,33.2,82.1,32.6,82.1,32z"/>
	<path class="st0" d="M85.7,39.2H59.1c-0.7,0-1.2-0.5-1.2-1.2v0c0-0.7,0.5-1.2,1.2-1.2h26.6c0.7,0,1.2,0.5,1.2,1.2l0,0
		C86.9,38.7,86.4,39.2,85.7,39.2z"/>
	<path class="st0" d="M57.9,38V11.4c0-0.7,0.5-1.2,1.2-1.2l0,0c0.7,0,1.2,0.5,1.2,1.2V38c0,0.7-0.5,1.2-1.2,1.2l0,0
		C58.5,39.2,57.9,38.7,57.9,38z"/>
	<polyline class="st1" points="63.9,20.5 71.2,14.4 77.2,18.1 85.1,12 	"/>
</g>
<g>
	<g>
		<g>
			<path class="st2" d="M182.4,69.9l-14.3-10.4c-0.3-0.2-0.6-0.2-0.9,0L153,69.9c-0.3,0.3-0.4,0.7-0.2,1.1c0.3,0.3,0.7,0.4,1.1,0.2
				l13.8-10.1l13.8,10.1c0.1,0.1,0.3,0.2,0.5,0.2c0.2,0,0.5-0.1,0.6-0.3C182.8,70.7,182.8,70.2,182.4,69.9z"/>
		</g>
	</g>
	<g>
		<g>
			<path class="st2" d="M178.6,71.4c-0.4,0-0.8,0.3-0.8,0.8v12.4h-6.3v-6.8c0-2.2-1.8-3.9-3.9-3.9c-2.2,0-3.9,1.8-3.9,3.9v6.8h-6.3
				V72.2c0-0.4-0.3-0.8-0.8-0.8c-0.4,0-0.8,0.3-0.8,0.8v13.2c0,0.4,0.3,0.8,0.8,0.8h7.8c0.4,0,0.7-0.3,0.8-0.7c0,0,0,0,0-0.1v-7.6
				c0-1.3,1.1-2.3,2.3-2.3s2.3,1.1,2.3,2.3v7.6c0,0,0,0,0,0.1c0,0.4,0.4,0.7,0.8,0.7h7.8c0.4,0,0.8-0.3,0.8-0.8V72.2
				C179.4,71.7,179.1,71.4,178.6,71.4z"/>
		</g>
	</g>
</g>
<g>
	<path class="st2" d="M228.8,58.9h-26.1c-0.6,0-1,0.2-1,0.7v5.1c0,0.6,0.4,0.7,1,0.7h1.6v11.7c0,0.6,0.4,1,1,1h3.6l-4.5,6.9
		c-0.3,0.5-0.2,1.1,0.3,1.3c0.2,0.1,0.3,0.1,0.5,0.1c0.3,0,0.7-0.2,0.8-0.5l5.2-8h9l5.2,8c0.2,0.3,0.5,0.5,0.8,0.5
		c0.2,0,0.4,0,0.5-0.1c0.5-0.3,0.6-0.9,0.3-1.3l-4.4-7h3.7c0.6,0,1-0.4,1-1V65.5h1.6c0.6,0,1-0.2,1-0.7v-5.1
		C229.8,59.1,229.3,58.9,228.8,58.9z M225.5,76.2l0,0.2h-4.2c0,0-0.1,0-0.1,0H219c0,0-0.1,0-0.1,0h-8.1c0,0,0,0-0.1,0H206v-11h19.5
		V76.2z M227.8,63.7h-1.6h-20.9h-1.6v-3.1h0h0h24.1V63.7z"/>
	<path class="st2" d="M211.1,74.3c0.2,0,0.5-0.1,0.7-0.3l1.6-1.6l3.2,0.8c0.4,0.1,0.7,0,1-0.3l3.3-3.9c0.4-0.4,0.3-1.1-0.1-1.4
		c-0.2-0.2-0.8-0.3-1.2,0.1l-2.9,3.7l-3.2-0.8c-0.3-0.1-0.7-0.2-0.9,0l-2,2c-0.3,0.3-0.5,0.6-0.4,1c0.1,0.3,0.3,0.6,0.6,0.6
		C210.9,74.3,211,74.3,211.1,74.3z"/>
</g>
<g>
	<path class="st2" d="M270.4,77.9h-14.9c-0.1,0-0.2,0.1-0.2,0.2c0,0.1,0.1,0.2,0.2,0.2h14.9c0.1,0,0.2-0.1,0.2-0.2
		C270.6,78,270.5,77.9,270.4,77.9z"/>
	<path class="st2" d="M270.4,82.1h-14.9c-0.1,0-0.2,0.1-0.2,0.2c0,0.1,0.1,0.2,0.2,0.2h14.9c0.1,0,0.2-0.1,0.2-0.2
		C270.6,82.2,270.5,82.1,270.4,82.1z"/>
	<path class="st2" d="M257.9,70.6l-0.9,3.2c-0.1,0.3,0,0.7,0.3,0.9c0.2,0.2,0.4,0.3,0.7,0.3c0.1,0,0.2,0,0.2,0l3.4-0.8
		c0.2,0,0.3-0.1,0.4-0.2l12.4-11.7c0.2-0.2,0.3-0.4,0.3-0.7c0-0.2-0.1-0.5-0.3-0.7l-2.5-2.4c-0.4-0.3-1-0.3-1.3,0l-12.4,11.7
		C258,70.3,257.9,70.5,257.9,70.6z M270.5,61.1l0.7-0.7l1.2,1.1l-0.7,0.7L270.5,61.1z M259.3,72.8l0.4-1.5l9.5-8.9l1.2,1.1l-9.4,8.9
		L259.3,72.8z"/>
	<path class="st2" d="M273.9,65.1c-0.5,0-1,0.4-1,0.9l-0.3,19.4l-19.8-0.3l0.3-22.9l11.7,0.2c0.5,0,1-0.4,1-0.9s-0.4-0.9-0.9-0.9
		l-12.7-0.2c-0.5,0-1,0.4-1,0.9L250.9,86c0,0.5,0.4,0.9,0.9,0.9l21.7,0.3c0.5,0,1-0.4,1-0.9l0.3-20.3
		C274.8,65.5,274.4,65.1,273.9,65.1z"/>
</g>
<g>
	<g>
		<path class="st2" d="M325,67.1c-1.5-3.6-4.4-6.5-7.9-7.9c-1.7-0.7-3.6-1.1-5.6-1.1s-3.9,0.4-5.6,1.1c-3.6,1.5-6.5,4.4-7.9,7.9
			c-0.7,1.7-1.1,3.6-1.1,5.6s0.4,3.9,1.1,5.6c1.5,3.6,4.4,6.5,7.9,7.9c1.7,0.7,3.6,1.1,5.6,1.1s3.9-0.4,5.6-1.1
			c3.6-1.5,6.5-4.4,7.9-7.9c0.7-1.7,1.1-3.6,1.1-5.6S325.7,68.9,325,67.1z M317.4,60.1c2.9,1.4,5.3,3.8,6.7,6.7l-3,1.2
			c-1.1-2.1-2.8-3.9-5-5L317.4,60.1z M305.5,60.1l1.2,3c-2.1,1.1-3.9,2.8-5,5l-3-1.2C300.1,63.8,302.5,61.4,305.5,60.1z M305.5,85.4
			c-2.9-1.4-5.3-3.8-6.7-6.7l3-1.2c1.1,2.1,2.8,3.9,5,5L305.5,85.4z M317.4,85.4l-1.2-3c2.1-1.1,3.9-2.8,5-5l3,1.2
			C322.8,81.7,320.4,84.1,317.4,85.4z M315.3,82.1c-1.2,0.5-2.5,0.8-3.9,0.8s-2.7-0.3-3.9-0.8c-2.5-1-4.5-3-5.5-5.5
			c-0.5-1.2-0.8-2.5-0.8-3.9s0.3-2.7,0.8-3.9c1-2.5,3-4.5,5.5-5.5c1.2-0.5,2.5-0.8,3.9-0.8s2.7,0.3,3.9,0.8c2.5,1,4.5,3,5.5,5.5
			c0.5,1.2,0.8,2.5,0.8,3.9s-0.3,2.7-0.8,3.9C319.8,79.1,317.8,81.1,315.3,82.1z"/>
		<path class="st2" d="M311.4,63.5c-5.1,0-9.2,4.1-9.2,9.2c0,5.1,4.1,9.2,9.2,9.2s9.2-4.1,9.2-9.2C320.7,67.7,316.5,63.5,311.4,63.5
			z M311.4,81.1c-4.6,0-8.4-3.8-8.4-8.4c0-4.6,3.8-8.4,8.4-8.4c4.6,0,8.4,3.8,8.4,8.4C319.8,77.4,316.1,81.1,311.4,81.1z"/>
	</g>
	<g>
		<path class="st2" d="M312.2,67.2c0.2,0,0.4,0.2,0.4,0.4v0.6c2.1,0.3,3.2,1.5,3.2,2.6c0,0.3-0.2,0.5-0.5,0.5h-1.6
			c-0.4,0-0.6-0.2-0.8-0.5c-0.1-0.2-0.5-0.6-1.5-0.6c-1.1,0-1.5,0.4-1.5,0.8c0,1.3,6.1,0.1,6.1,3.6c0,1.4-1.1,2.6-3.5,2.8v0.6
			c0,0.2-0.2,0.4-0.4,0.4h-1.4c-0.2,0-0.4-0.2-0.4-0.4v-0.6c-2.6-0.3-3.6-1.5-3.6-2.7c0-0.3,0.2-0.5,0.5-0.5h1.6
			c0.4,0,0.6,0.2,0.8,0.5c0.2,0.3,0.6,0.7,1.8,0.7s1.7-0.4,1.7-0.8c0-1.3-6.1-0.1-6.1-3.6c0-1.3,1-2.5,3.4-2.8v-0.6
			c0-0.2,0.2-0.4,0.4-0.4H312.2z"/>
	</g>
</g>
<g>
	<g>
		<g>
			<path class="st0" d="M182.4,117.9l-14.3-10.4c-0.3-0.2-0.6-0.2-0.9,0L153,117.9c-0.3,0.3-0.4,0.7-0.2,1.1
				c0.3,0.3,0.7,0.4,1.1,0.2l13.8-10.1l13.8,10.1c0.1,0.1,0.3,0.2,0.5,0.2c0.2,0,0.5-0.1,0.6-0.3
				C182.8,118.7,182.8,118.2,182.4,117.9z"/>
		</g>
	</g>
	<g>
		<g>
			<path class="st0" d="M178.6,119.4c-0.4,0-0.8,0.3-0.8,0.8v12.4h-6.3v-6.8c0-2.2-1.8-3.9-3.9-3.9c-2.2,0-3.9,1.8-3.9,3.9v6.8h-6.3
				v-12.4c0-0.4-0.3-0.8-0.8-0.8c-0.4,0-0.8,0.3-0.8,0.8v13.2c0,0.4,0.3,0.8,0.8,0.8h7.8c0.4,0,0.7-0.3,0.8-0.7c0,0,0,0,0-0.1v-7.6
				c0-1.3,1.1-2.3,2.3-2.3s2.3,1.1,2.3,2.3v7.6c0,0,0,0,0,0.1c0,0.4,0.4,0.7,0.8,0.7h7.8c0.4,0,0.8-0.3,0.8-0.8v-13.2
				C179.4,119.7,179.1,119.4,178.6,119.4z"/>
		</g>
	</g>
</g>
<g>
	<path class="st0" d="M228.8,106.9h-26.1c-0.6,0-1,0.2-1,0.7v5.1c0,0.6,0.4,0.7,1,0.7h1.6v11.7c0,0.6,0.4,1,1,1h3.6l-4.5,6.9
		c-0.3,0.5-0.2,1.1,0.3,1.3c0.2,0.1,0.3,0.1,0.5,0.1c0.3,0,0.7-0.2,0.8-0.5l5.2-8h9l5.2,8c0.2,0.3,0.5,0.5,0.8,0.5
		c0.2,0,0.4,0,0.5-0.1c0.5-0.3,0.6-0.9,0.3-1.3l-4.4-7h3.7c0.6,0,1-0.4,1-1v-11.7h1.6c0.6,0,1-0.2,1-0.7v-5.1
		C229.8,107.1,229.3,106.9,228.8,106.9z M225.5,124.2l0,0.2h-4.2c0,0-0.1,0-0.1,0H219c0,0-0.1,0-0.1,0h-8.1c0,0,0,0-0.1,0H206v-11
		h19.5V124.2z M227.8,111.7h-1.6h-20.9h-1.6v-3.1h0h0h24.1V111.7z"/>
	<path class="st0" d="M211.1,122.3c0.2,0,0.5-0.1,0.7-0.3l1.6-1.6l3.2,0.8c0.4,0.1,0.7,0,1-0.3l3.3-3.9c0.4-0.4,0.3-1.1-0.1-1.4
		c-0.2-0.2-0.8-0.3-1.2,0.1l-2.9,3.7l-3.2-0.8c-0.3-0.1-0.7-0.2-0.9,0l-2,2c-0.3,0.3-0.5,0.6-0.4,1c0.1,0.3,0.3,0.6,0.6,0.6
		C210.9,122.3,211,122.3,211.1,122.3z"/>
</g>
<g>
	<path class="st0" d="M270.4,125.9h-14.9c-0.1,0-0.2,0.1-0.2,0.2c0,0.1,0.1,0.2,0.2,0.2h14.9c0.1,0,0.2-0.1,0.2-0.2
		C270.6,126,270.5,125.9,270.4,125.9z"/>
	<path class="st0" d="M270.4,130.1h-14.9c-0.1,0-0.2,0.1-0.2,0.2c0,0.1,0.1,0.2,0.2,0.2h14.9c0.1,0,0.2-0.1,0.2-0.2
		C270.6,130.2,270.5,130.1,270.4,130.1z"/>
	<path class="st0" d="M257.9,118.6l-0.9,3.2c-0.1,0.3,0,0.7,0.3,0.9c0.2,0.2,0.4,0.3,0.7,0.3c0.1,0,0.2,0,0.2,0l3.4-0.8
		c0.2,0,0.3-0.1,0.4-0.2l12.4-11.7c0.2-0.2,0.3-0.4,0.3-0.7c0-0.2-0.1-0.5-0.3-0.7l-2.5-2.4c-0.4-0.3-1-0.3-1.3,0l-12.4,11.7
		C258,118.3,257.9,118.5,257.9,118.6z M270.5,109.1l0.7-0.7l1.2,1.1l-0.7,0.7L270.5,109.1z M259.3,120.8l0.4-1.5l9.5-8.9l1.2,1.1
		l-9.4,8.9L259.3,120.8z"/>
	<path class="st0" d="M273.9,113.1c-0.5,0-1,0.4-1,0.9l-0.3,19.4l-19.8-0.3l0.3-22.9l11.7,0.2c0.5,0,1-0.4,1-0.9
		c0-0.5-0.4-0.9-0.9-0.9l-12.7-0.2c-0.5,0-1,0.4-1,0.9l-0.4,24.7c0,0.5,0.4,0.9,0.9,0.9l21.7,0.3c0.5,0,1-0.4,1-0.9l0.3-20.3
		C274.8,113.5,274.4,113.1,273.9,113.1z"/>
</g>
<g>
	<g>
		<path class="st0" d="M325,115.1c-1.5-3.6-4.4-6.5-7.9-7.9c-1.7-0.7-3.6-1.1-5.6-1.1s-3.9,0.4-5.6,1.1c-3.6,1.5-6.5,4.4-7.9,7.9
			c-0.7,1.7-1.1,3.6-1.1,5.6s0.4,3.9,1.1,5.6c1.5,3.6,4.4,6.5,7.9,7.9c1.7,0.7,3.6,1.1,5.6,1.1s3.9-0.4,5.6-1.1
			c3.6-1.5,6.5-4.4,7.9-7.9c0.7-1.7,1.1-3.6,1.1-5.6S325.7,116.9,325,115.1z M317.4,108.1c2.9,1.4,5.3,3.8,6.7,6.7l-3,1.2
			c-1.1-2.1-2.8-3.9-5-5L317.4,108.1z M305.5,108.1l1.2,3c-2.1,1.1-3.9,2.8-5,5l-3-1.2C300.1,111.8,302.5,109.4,305.5,108.1z
			 M305.5,133.4c-2.9-1.4-5.3-3.8-6.7-6.7l3-1.2c1.1,2.1,2.8,3.9,5,5L305.5,133.4z M317.4,133.4l-1.2-3c2.1-1.1,3.9-2.8,5-5l3,1.2
			C322.8,129.7,320.4,132.1,317.4,133.4z M315.3,130.1c-1.2,0.5-2.5,0.8-3.9,0.8s-2.7-0.3-3.9-0.8c-2.5-1-4.5-3-5.5-5.5
			c-0.5-1.2-0.8-2.5-0.8-3.9s0.3-2.7,0.8-3.9c1-2.5,3-4.5,5.5-5.5c1.2-0.5,2.5-0.8,3.9-0.8s2.7,0.3,3.9,0.8c2.5,1,4.5,3,5.5,5.5
			c0.5,1.2,0.8,2.5,0.8,3.9s-0.3,2.7-0.8,3.9C319.8,127.1,317.8,129.1,315.3,130.1z"/>
		<path class="st0" d="M311.4,111.5c-5.1,0-9.2,4.1-9.2,9.2c0,5.1,4.1,9.2,9.2,9.2s9.2-4.1,9.2-9.2
			C320.7,115.7,316.5,111.5,311.4,111.5z M311.4,129.1c-4.6,0-8.4-3.8-8.4-8.4c0-4.6,3.8-8.4,8.4-8.4c4.6,0,8.4,3.8,8.4,8.4
			C319.8,125.4,316.1,129.1,311.4,129.1z"/>
	</g>
	<g>
		<path class="st0" d="M312.2,115.2c0.2,0,0.4,0.2,0.4,0.4v0.6c2.1,0.3,3.2,1.5,3.2,2.6c0,0.3-0.2,0.5-0.5,0.5h-1.6
			c-0.4,0-0.6-0.2-0.8-0.5c-0.1-0.2-0.5-0.6-1.5-0.6c-1.1,0-1.5,0.4-1.5,0.8c0,1.3,6.1,0.1,6.1,3.6c0,1.4-1.1,2.6-3.5,2.8v0.6
			c0,0.2-0.2,0.4-0.4,0.4h-1.4c-0.2,0-0.4-0.2-0.4-0.4v-0.6c-2.6-0.3-3.6-1.5-3.6-2.7c0-0.3,0.2-0.5,0.5-0.5h1.6
			c0.4,0,0.6,0.2,0.8,0.5c0.2,0.3,0.6,0.7,1.8,0.7s1.7-0.4,1.7-0.8c0-1.3-6.1-0.1-6.1-3.6c0-1.3,1-2.5,3.4-2.8v-0.6
			c0-0.2,0.2-0.4,0.4-0.4H312.2z"/>
	</g>
</g>
<path class="st3" d="M417.8,80.6l-8.1-8.1l8.1-8.1c0.4-0.4,0.4-1.1,0-1.5c-0.4-0.4-1.1-0.4-1.5,0l-8.1,8.1l-8.1-8.1
	c-0.4-0.4-1.1-0.4-1.5,0c-0.4,0.4-0.4,1.1,0,1.5l8.1,8.1l-8.1,8.1c-0.4,0.4-0.4,1.1,0,1.5c0.4,0.4,1.1,0.4,1.5,0l8.1-8.1l8.1,8.1
	c0.4,0.4,1.1,0.4,1.5,0C418.2,81.7,418.2,81,417.8,80.6z"/>
<g>
	<path class="st2" d="M23.6,87.2c-10.2,0-13.9-5.9-13.9-11.5c0-2.8,2.2-6.6,6.4-10.9c-1.1-1.2-2.2-2.6-0.9-4.6
		c0.5-0.8,1.3-1.3,2.3-1.4c0.8-0.1,1.8,0.1,2.6,0.6c0.5-2,2.4-2.5,3.5-2.5c1.1,0,3,0.6,3.5,2.5c0.8-0.5,1.7-0.7,2.6-0.6
		c1,0.1,1.8,0.6,2.3,1.4c1.3,2,0.3,3.4-0.9,4.6c4.2,4.3,6.4,8,6.4,10.9C37.5,81.3,33.8,87.2,23.6,87.2z"/>
	<path class="st0" d="M17.9,60.1c-0.1,0-0.2,0-0.2,0c-0.6,0.1-1.1,0.3-1.4,0.9c-0.9,1.3-0.2,2.1,1.1,3.5l0.4,0.4l-0.4,0.4
		c-4.2,4.2-6.5,7.9-6.5,10.4c0,2.4,0.9,10.3,12.7,10.3s12.7-7.9,12.7-10.3c0-2.6-2.3-6.3-6.5-10.4l-0.4-0.4l0.4-0.4
		c1.3-1.3,2-2.1,1.1-3.5c-0.3-0.5-0.8-0.8-1.4-0.9c-0.8-0.1-1.8,0.3-2.5,1l-1,1v-1.5c0-2.4-2.3-2.4-2.4-2.4c-0.2,0-2.4,0.1-2.4,2.4
		v1.5l-1-1C19.6,60.5,18.7,60.1,17.9,60.1z"/>
	<g>
		<path class="st2" d="M27.2,75.1H20c-0.3,0-0.6-0.3-0.6-0.6s0.3-0.6,0.6-0.6h7.2c0.3,0,0.6,0.3,0.6,0.6S27.6,75.1,27.2,75.1z"/>
		<path class="st2" d="M27.2,77.5H20c-0.3,0-0.6-0.3-0.6-0.6s0.3-0.6,0.6-0.6h7.2c0.3,0,0.6,0.3,0.6,0.6S27.6,77.5,27.2,77.5z"/>
		<path class="st2" d="M23.6,81.2c-0.3,0-0.6-0.3-0.6-0.6v-6c0-0.3,0.3-0.6,0.6-0.6c0.3,0,0.6,0.3,0.6,0.6v6
			C24.2,80.9,23.9,81.2,23.6,81.2z"/>
		<path class="st2" d="M23.3,75.1c-0.2,0-0.4-0.1-0.5-0.3l-3-4.2c-0.2-0.3-0.1-0.6,0.1-0.8c0.3-0.2,0.6-0.1,0.8,0.1l3,4.2
			c0.2,0.3,0.1,0.6-0.1,0.8C23.5,75.1,23.4,75.1,23.3,75.1z"/>
		<path class="st2" d="M23.9,75.1c-0.1,0-0.2,0-0.4-0.1c-0.3-0.2-0.3-0.6-0.1-0.8l3-4.2c0.2-0.3,0.6-0.3,0.8-0.1
			c0.3,0.2,0.3,0.6,0.1,0.8l-3,4.2C24.3,75,24.1,75.1,23.9,75.1z"/>
	</g>
</g>
<g>
	<path class="st2" d="M127.3,29.8c0-0.2-0.2-0.4-0.4-0.4h-15.2c-0.2,0-0.4,0.2-0.4,0.4s0.2,0.4,0.4,0.4h15.2
		C127.1,30.1,127.3,30,127.3,29.8z"/>
	<path class="st2" d="M111.7,33.7c-0.2,0-0.4,0.2-0.4,0.4s0.2,0.4,0.4,0.4h11c0.2,0,0.4-0.2,0.4-0.4s-0.2-0.4-0.4-0.4H111.7z"/>
	<path class="st2" d="M114.4,22.2l-0.9,3.3c-0.1,0.2,0,0.5,0.2,0.7c0.1,0.1,0.3,0.2,0.5,0.2c0.1,0,0.1,0,0.2,0l3.5-0.9
		c0.1,0,0.3-0.1,0.3-0.2l12.6-11.9c0.1-0.1,0.2-0.3,0.2-0.5c0-0.2-0.1-0.4-0.2-0.5l-2.6-2.4c-0.3-0.3-0.8-0.3-1.1,0l-12.6,11.9
		C114.5,22,114.4,22.1,114.4,22.2z M126.7,12.5l1-1l1.5,1.4l-1,1L126.7,12.5z M115.3,24.7l0.5-1.9l9.8-9.3l1.5,1.4l-9.8,9.3
		L115.3,24.7z"/>
	<path class="st2" d="M130.3,16.5c-0.4,0-0.8,0.3-0.8,0.7v20H109V13.6h12.2c0.4,0,0.8-0.3,0.8-0.7s-0.3-0.7-0.8-0.7h-12.9
		c-0.4,0-0.8,0.3-0.8,0.7V38c0,0.4,0.3,0.7,0.8,0.7h22.1c0.4,0,0.8-0.3,0.8-0.7V17.3C131.1,16.9,130.8,16.5,130.3,16.5z"/>
</g>
<g>
	<g>
		<g>
			<path class="st2" d="M179.3,33.9c-3-1.3-3.1-7.1-3.1-7.3v-3.9c0-3.7-2.3-6.9-5.5-8.3c0-1.9-1.6-3.5-3.5-3.5
				c-1.9,0-3.5,1.6-3.5,3.5c-3.2,1.4-5.5,4.6-5.5,8.3v3.9c0,0.1-0.1,5.9-3.1,7.3c-0.3,0.2-0.5,0.5-0.4,0.9c0.1,0.4,0.4,0.6,0.8,0.6
				h7.6c0.2,0.9,0.6,1.6,1.2,2.3c0.8,0.9,1.9,1.3,3,1.3c1.1,0,2.2-0.5,3-1.3c0.6-0.6,1-1.4,1.2-2.3h7.6c0.4,0,0.7-0.3,0.8-0.6
				C179.8,34.4,179.6,34,179.3,33.9z M175.3,31.1c0.3,1,0.8,1.9,1.4,2.7h-19.1c0.6-0.8,1.1-1.7,1.4-2.7H175.3z M167.2,12.5
				c0.9,0,1.6,0.6,1.8,1.4c-0.6-0.1-1.2-0.2-1.8-0.2s-1.2,0.1-1.8,0.2C165.5,13.1,166.3,12.5,167.2,12.5z M159.7,26.6v-3.9
				c0-4.1,3.3-7.4,7.4-7.4c4.1,0,7.4,3.3,7.4,7.4v3.9c0,0.1,0,1.4,0.3,2.9h-15.5C159.7,28,159.7,26.7,159.7,26.6z M167.2,37.4
				c-1.2,0-2.3-0.9-2.6-2h5.2C169.4,36.5,168.4,37.4,167.2,37.4z"/>
			<path class="st2" d="M167.2,16.4c-3.4,0-6.2,2.8-6.2,6.2c0,0.4,0.4,0.8,0.8,0.8c0.4,0,0.8-0.4,0.8-0.8c0-2.5,2.1-4.6,4.6-4.6
				c0.4,0,0.8-0.4,0.8-0.8C167.9,16.8,167.6,16.4,167.2,16.4z"/>
		</g>
	</g>
</g>
<g>
	<path class="st2" d="M228.1,11.8h-24.6c-0.5,0-0.9,0.2-0.9,0.7v4.8c0,0.5,0.4,0.7,0.9,0.7h1.5v11.1c0,0.5,0.4,0.9,0.9,0.9h3.4
		l-4.2,6.6c-0.3,0.4-0.2,1,0.3,1.3c0.2,0.1,0.3,0.1,0.5,0.1c0.3,0,0.6-0.2,0.8-0.4l4.9-7.6h8.5l4.9,7.6c0.2,0.3,0.5,0.4,0.8,0.4
		c0.2,0,0.3,0,0.5-0.1c0.4-0.3,0.6-0.8,0.3-1.3l-4.2-6.6h3.4c0.5,0,0.9-0.4,0.9-0.9V18h1.5c0.5,0,0.9-0.2,0.9-0.7v-4.8
		C229,12,228.6,11.8,228.1,11.8z M225,28.2l0,0.2h-4c0,0,0,0-0.1,0h-2.1c0,0-0.1,0-0.1,0h-7.7c0,0,0,0-0.1,0h-4.4V18H225V28.2z
		 M227.1,16.4h-1.5h-19.7h-1.5v-2.9h0h0h22.7V16.4z"/>
	<path class="st2" d="M211.4,26.3c0.2,0,0.5-0.1,0.7-0.3l1.5-1.5l3.1,0.8c0.3,0.1,0.7,0,1-0.3l3.1-3.7c0.3-0.4,0.3-1-0.1-1.3
		c-0.2-0.1-0.8-0.3-1.1,0.1l-2.7,3.5l-3-0.8c-0.3-0.1-0.7-0.2-0.9,0l-1.9,1.9c-0.3,0.3-0.5,0.6-0.4,0.9c0.1,0.3,0.3,0.5,0.6,0.6
		C211.2,26.3,211.3,26.3,211.4,26.3z"/>
</g>
<g>
	<g>
		<path class="st2" d="M311.3,39.5c8.1,0,14.7-6.6,14.7-14.7s-6.6-14.7-14.7-14.7c-8.1,0-14.7,6.6-14.7,14.7S303.2,39.5,311.3,39.5z
			 M311.3,12.1c7,0,12.6,5.7,12.6,12.6s-5.7,12.6-12.6,12.6c-7,0-12.6-5.7-12.6-12.6S304.3,12.1,311.3,12.1z"/>
		<path class="st2" d="M308.8,31.3c-0.6,0-1,0.5-1,1c0,0.6,0.5,1,1,1h6.8c0.6,0,1-0.5,1-1c0-0.6-0.5-1-1-1h-2.4v-9.1
			c0-0.6-0.5-1-1-1h-3.4c-0.6,0-1,0.5-1,1c0,0.6,0.5,1,1,1h2.4v8.1H308.8z"/>
		<circle class="st2" cx="310.8" cy="17.7" r="1.7"/>
	</g>
</g>
<g>
	<path class="st2" d="M372.5,27.3c-0.8-1.8-1.8-3.5-3.2-5.1c-1.6-2-3.3-3.3-4.1-3.9l3.1-5.8c0.2-0.3,0.1-0.6-0.1-0.9
		c-0.8-0.8-1.7-1.2-2.6-1.2c-0.9,0-1.7,0.3-2.4,0.6c-0.6,0.2-1.1,0.4-1.5,0.4c-0.1,0-0.2,0-0.4-0.1c-1.5-0.5-2.6-0.9-3.7-0.9
		c-1.4,0-2.6,0.6-3.7,1.7c-0.2,0.2-0.3,0.6-0.1,0.9l3.4,5.1c-0.8,0.6-2.4,1.9-4,3.9c-1.3,1.6-2.4,3.3-3.2,5.1c-1,2.2-1.5,4.6-1.5,7
		c0,3.2,2.6,5.7,5.7,5.7h14c3.2,0,5.7-2.6,5.7-5.7C373.9,31.9,373.4,29.6,372.5,27.3z M355.4,12.9c0.7-0.6,1.4-0.9,2.2-0.9
		c0.9,0,1.9,0.3,3.2,0.8c0.3,0.1,0.6,0.1,0.9,0.1c0.7,0,1.4-0.3,2.1-0.6c0.6-0.3,1.2-0.5,1.8-0.5c0.3,0,0.7,0,1.2,0.4l-3,5.5h-5.1
		L355.4,12.9z M368.2,38.5h-14c-2.3,0-4.3-1.9-4.3-4.3c0-3.9,1.4-7.7,4.3-11.1c1.8-2.2,3.6-3.5,4.2-3.9h5.5c0.6,0.4,2.4,1.7,4.2,3.9
		c2.8,3.4,4.3,7.2,4.3,11.1C372.4,36.6,370.5,38.5,368.2,38.5z"/>
	<g>
		<path class="st2" d="M358.8,32.1h1.5v-1h-1.5c-0.6,0-0.9-0.2-0.9-0.6c0-0.4,0.3-0.6,0.9-0.6h0.8l-2-3.1c-0.2-0.2-0.3-0.4-0.3-0.5
			c0-0.1-0.1-0.2-0.1-0.4c0-0.2,0.1-0.4,0.2-0.6c0.1-0.1,0.3-0.2,0.5-0.2c0.2,0,0.4,0.1,0.5,0.2c0.1,0.1,0.3,0.4,0.5,0.7l2.1,3.3
			l1.9-3.2c0.1-0.1,0.1-0.3,0.2-0.4s0.2-0.2,0.2-0.3c0.1-0.1,0.2-0.2,0.3-0.2c0.1-0.1,0.2-0.1,0.4-0.1c0.2,0,0.4,0.1,0.5,0.2
			c0.1,0.1,0.2,0.3,0.2,0.5c0,0.2,0,0.3-0.1,0.4c-0.1,0.1-0.1,0.3-0.3,0.5l-1.9,3.1h0.8c0.6,0,0.9,0.2,0.9,0.6
			c0,0.4-0.3,0.6-0.9,0.6h-1.5v1h1.5c0.6,0,0.9,0.2,0.9,0.6c0,0.4-0.3,0.6-0.9,0.6h-1.5v0.5c0,0.9-0.3,1.3-0.9,1.3
			c-0.6,0-0.9-0.4-0.9-1.3v-0.5h-1.5c-0.6,0-0.9-0.2-0.9-0.6C357.9,32.3,358.2,32.1,358.8,32.1z"/>
	</g>
</g>
<g>
	<rect x="250" y="12" class="st2" width="14.1" height="2.3"/>
	<rect x="250" y="17.7" class="st2" width="20.3" height="2.3"/>
	<rect x="250" y="23.3" class="st2" width="25" height="2.3"/>
	<rect x="250" y="29" class="st2" width="20.3" height="2.3"/>
	<rect x="250" y="34.7" class="st2" width="14.8" height="2.3"/>
</g>
<path class="st0" d="M399.4,25.3l15.2-15.2c0.6-0.6,0.6-1.5,0-2c-0.6-0.6-1.5-0.6-2,0l-16.2,16.2c-0.6,0.6-0.6,1.5,0,2l16.2,16.2
	c0.3,0.3,0.7,0.4,1,0.4s0.7-0.1,1-0.4c0.6-0.6,0.6-1.5,0-2L399.4,25.3z"/>
<g>
	<path class="st2" d="M445.8,29c-0.2,0-0.5-0.1-0.6-0.3c-0.4-0.3-0.4-0.9,0-1.3l9.1-9.1c0.4-0.4,0.9-0.4,1.3,0
		c0.4,0.3,0.4,0.9,0,1.3l-9.1,9.1C446.2,29,446,29,445.8,29z"/>
	<path class="st2" d="M464,29c-0.2,0-0.5-0.1-0.6-0.3l-9.1-9.1c-0.4-0.3-0.4-0.9,0-1.3c0.4-0.4,0.9-0.4,1.3,0l9.1,9.1
		c0.4,0.3,0.4,0.9,0,1.3C464.4,29,464.2,29,464,29z"/>
</g>
<g id="图层_2">
	<g id="footer">
		<circle class="st4" cx="413.4" cy="215.4" r="0.9"/>
		<circle class="st4" cx="408.4" cy="215.4" r="0.9"/>
		<circle class="st4" cx="403.4" cy="215.5" r="0.9"/>
		<circle class="st5" cx="408.4" cy="215.4" r="10"/>
	</g>
</g>
<g id="图层_2_1_">
	<g id="footer_1_">
		<circle class="st6" cx="457.4" cy="215.4" r="10"/>
		<path class="st7" d="M457.1,209.1h0.4c0.2,0,0.4,0.2,0.4,0.4v9.1c0,0.2-0.2,0.4-0.4,0.4h-0.4c-0.2,0-0.4-0.2-0.4-0.4v-9.2
			C456.7,209.2,456.9,209.1,457.1,209.1z"/>
		<circle class="st7" cx="457.3" cy="221" r="0.7"/>
	</g>
</g>
<g>
	<path class="st8" d="M373.7,209.7c-3.5-3.5-8.1-5.4-13.1-5.4s-9.6,1.9-13.1,5.4l-4.8,4.8l4.9,4.9c3.5,3.5,8.1,5.4,13.1,5.4
		c5,0,9.6-1.9,13.1-5.4l4.8-4.8L373.7,209.7z M372.9,218.6c-3.3,3.3-7.6,5-12.2,5c-4.6,0-9-1.8-12.2-5l-4.1-4.1l4-4
		c3.3-3.3,7.6-5,12.2-5s9,1.8,12.2,5l4.1,4.1L372.9,218.6z"/>
	<path class="st8" d="M360.6,206.7c-4.4,0-7.9,3.5-7.9,7.9c0,4.4,3.5,7.9,7.9,7.9s7.9-3.5,7.9-7.9
		C368.5,210.2,364.9,206.7,360.6,206.7z M360.6,211.6c-1.7,0-3,1.3-3,3c0,0.4-0.2,0.6-0.6,0.6s-0.6-0.2-0.6-0.6
		c0-2.4,1.9-4.3,4.3-4.3c0.4,0,0.6,0.2,0.6,0.6S360.9,211.6,360.6,211.6z"/>
</g>
<g>
	<path class="st8" d="M324.7,209.9c-1.3-1.3-2.7-2.4-4.3-3.2l5.8-5.8c0.2-0.2,0.2-0.6,0-0.9c-0.2-0.2-0.6-0.2-0.9,0l-6.1,6.1
		c-2.4-1.1-5-1.7-7.7-1.7c-4.9,0-9.6,1.9-13.1,5.4l-4.8,4.9l4.9,4.9c1.2,1.2,2.6,2.2,4.1,3.1l-5.5,5.5c-0.2,0.2-0.2,0.6,0,0.9
		c0.1,0.1,0.3,0.2,0.4,0.2c0.1,0,0.3-0.1,0.4-0.2l5.8-5.8c2.4,1.2,5.1,1.8,7.9,1.8c4.9,0,9.6-1.9,13.1-5.4l4.8-4.8L324.7,209.9z
		 M303.5,221.8c-1.5-0.8-2.9-1.8-4.1-3l-4.1-4.1l4-4c3.3-3.3,7.6-5,12.2-5c2.4,0,4.7,0.5,6.8,1.4L303.5,221.8z M323.9,218.8
		c-3.3,3.3-7.6,5-12.2,5c-2.4,0-4.8-0.5-7-1.5l14.8-14.8c1.6,0.8,3,1.9,4.3,3.2l4.1,4.1L323.9,218.8z"/>
	<path class="st8" d="M311.6,206.9c-4.4,0-7.9,3.5-7.9,7.9c0,1.5,0.4,3,1.2,4.2l10.9-10.9C314.6,207.3,313.1,206.9,311.6,206.9z"/>
	<path class="st8" d="M307.3,221.4c1.2,0.8,2.7,1.3,4.3,1.3c4.4,0,7.9-3.5,7.9-7.9c0-1.6-0.5-3.1-1.3-4.3L307.3,221.4z"/>
</g>
<g id="圖層_2">
	<g id="Layer_1">
		<path class="st8" d="M266.5,215.3l8.2-9.6c0.9-1,0.8-2.6-0.3-3.5c-1-0.9-2.6-0.8-3.5,0.3l-7.7,9l-7.8-9c-0.9-1.1-2.5-1.2-3.5-0.3
			c-1.1,0.9-1.2,2.5-0.3,3.5c0,0,0,0,0.1,0.1l8.2,9.6l-8.2,9.6c-0.9,1-0.8,2.6,0.2,3.5s2.6,0.8,3.5-0.2c0,0,0,0,0.1-0.1l7.8-9l7.7,9
			c0.9,1,2.5,1.1,3.5,0.2c1-0.9,1.1-2.4,0.3-3.4L266.5,215.3z"/>
	</g>
</g>
</svg>
