<?xml version="1.0" encoding="utf-8"?>
<!-- Generator: Adobe Illustrator 21.1.0, SVG Export Plug-In . SVG Version: 6.00 Build 0)  -->
<svg version="1.1" xmlns="http://www.w3.org/2000/svg" xmlns:xlink="http://www.w3.org/1999/xlink" x="0px" y="0px" width="480px"
	 height="240px" viewBox="0 0 480 240" style="enable-background:new 0 0 480 240;" xml:space="preserve">
<style type="text/css">
	.st0{fill:#FFFFFF;}
	.st1{fill:none;stroke:#FFFFFF;stroke-width:2;stroke-linecap:round;stroke-linejoin:round;stroke-miterlimit:10;}
	.st2{fill:#CBCBCB;}
	.st3{fill:#52ACD3;}
	.st4{fill:#2B2B2B;}
	.st5{fill:#999999;}
	.st6{fill:#FF3355;}
	.st7{fill:#B91010;}
	.st8{fill:none;stroke:#FF3355;stroke-width:2.415;stroke-linecap:round;}
	.st9{fill:none;stroke:#FF3355;stroke-width:2.415;stroke-linecap:round;stroke-linejoin:round;}
	.st10{fill:none;stroke:#999999;stroke-width:2.415;stroke-linecap:round;}
	.st11{fill:none;stroke:#999999;stroke-width:2.415;stroke-linecap:round;stroke-linejoin:round;}
</style>
<g id="icon_x5F_sprite">
	<g id="參考線">
	</g>
	<g>
		<path class="st0" d="M37.9,12.7H11.4c-0.7,0-1.2-0.5-1.2-1.2l0,0c0-0.7,0.5-1.2,1.2-1.2h26.5c0.7,0,1.2,0.5,1.2,1.2l0,0
			C39.1,12.2,38.5,12.7,37.9,12.7z"/>
		<path class="st0" d="M37.9,25.7H11.4c-0.7,0-1.2-0.5-1.2-1.2l0,0c0-0.7,0.5-1.2,1.2-1.2h26.5c0.7,0,1.2,0.5,1.2,1.2l0,0
			C39.1,25.2,38.5,25.7,37.9,25.7z"/>
		<path class="st0" d="M37.9,38.7H11.4c-0.7,0-1.2-0.5-1.2-1.2l0,0c0-0.7,0.5-1.2,1.2-1.2h26.5c0.7,0,1.2,0.5,1.2,1.2l0,0
			C39.1,38.1,38.5,38.7,37.9,38.7z"/>
	</g>
	<g>
		<path class="st0" d="M63.9,32v-6.6c0-0.7,0.5-1.2,1.2-1.2l0,0c0.7,0,1.2,0.5,1.2,1.2V32c0,0.7-0.5,1.2-1.2,1.2l0,0
			C64.5,33.2,63.9,32.6,63.9,32z"/>
		<path class="st0" d="M70,32V21.1c0-0.7,0.5-1.2,1.2-1.2l0,0c0.7,0,1.2,0.5,1.2,1.2V32c0,0.7-0.5,1.2-1.2,1.2l0,0
			C70.5,33.2,70,32.6,70,32z"/>
		<path class="st0" d="M76,32v-8.5c0-0.7,0.5-1.2,1.2-1.2l0,0c0.7,0,1.2,0.5,1.2,1.2V32c0,0.7-0.5,1.2-1.2,1.2l0,0
			C76.6,33.2,76,32.6,76,32z"/>
		<path class="st0" d="M82.1,32V19.3c0-0.7,0.5-1.2,1.2-1.2l0,0c0.7,0,1.2,0.5,1.2,1.2V32c0,0.7-0.5,1.2-1.2,1.2l0,0
			C82.6,33.2,82.1,32.6,82.1,32z"/>
		<path class="st0" d="M85.7,39.2H59.1c-0.7,0-1.2-0.5-1.2-1.2l0,0c0-0.7,0.5-1.2,1.2-1.2h26.6c0.7,0,1.2,0.5,1.2,1.2l0,0
			C86.9,38.7,86.4,39.2,85.7,39.2z"/>
		<path class="st0" d="M57.9,38V11.4c0-0.7,0.5-1.2,1.2-1.2l0,0c0.7,0,1.2,0.5,1.2,1.2V38c0,0.7-0.5,1.2-1.2,1.2l0,0
			C58.5,39.2,57.9,38.7,57.9,38z"/>
		<polyline class="st1" points="63.9,20.5 71.2,14.4 77.2,18.1 85.1,12 		"/>
	</g>
	<path class="st2" d="M417.8,80.6l-8.1-8.1l8.1-8.1c0.4-0.4,0.4-1.1,0-1.5s-1.1-0.4-1.5,0l-8.1,8.1l-8.1-8.1c-0.4-0.4-1.1-0.4-1.5,0
		s-0.4,1.1,0,1.5l8.1,8.1l-8.1,8.1c-0.4,0.4-0.4,1.1,0,1.5s1.1,0.4,1.5,0l8.1-8.1l8.1,8.1c0.4,0.4,1.1,0.4,1.5,0
		C418.2,81.7,418.2,81,417.8,80.6z"/>
	<g>
		<path class="st3" d="M23.6,87.2c-10.2,0-13.9-5.9-13.9-11.5c0-2.8,2.2-6.6,6.4-10.9c-1.1-1.2-2.2-2.6-0.9-4.6
			c0.5-0.8,1.3-1.3,2.3-1.4c0.8-0.1,1.8,0.1,2.6,0.6c0.5-2,2.4-2.5,3.5-2.5s3,0.6,3.5,2.5c0.8-0.5,1.7-0.7,2.6-0.6
			c1,0.1,1.8,0.6,2.3,1.4c1.3,2,0.3,3.4-0.9,4.6c4.2,4.3,6.4,8,6.4,10.9C37.5,81.3,33.8,87.2,23.6,87.2z"/>
		<path class="st0" d="M17.9,60.1c-0.1,0-0.2,0-0.2,0c-0.6,0.1-1.1,0.3-1.4,0.9c-0.9,1.3-0.2,2.1,1.1,3.5l0.4,0.4l-0.4,0.4
			c-4.2,4.2-6.5,7.9-6.5,10.4c0,2.4,0.9,10.3,12.7,10.3s12.7-7.9,12.7-10.3c0-2.6-2.3-6.3-6.5-10.4l-0.4-0.4l0.4-0.4
			c1.3-1.3,2-2.1,1.1-3.5c-0.3-0.5-0.8-0.8-1.4-0.9c-0.8-0.1-1.8,0.3-2.5,1l-1,1v-1.5c0-2.4-2.3-2.4-2.4-2.4c-0.2,0-2.4,0.1-2.4,2.4
			v1.5l-1-1C19.6,60.5,18.7,60.1,17.9,60.1z"/>
		<g>
			<path class="st3" d="M27.2,75.1H20c-0.3,0-0.6-0.3-0.6-0.6s0.3-0.6,0.6-0.6h7.2c0.3,0,0.6,0.3,0.6,0.6S27.6,75.1,27.2,75.1z"/>
			<path class="st3" d="M27.2,77.5H20c-0.3,0-0.6-0.3-0.6-0.6s0.3-0.6,0.6-0.6h7.2c0.3,0,0.6,0.3,0.6,0.6S27.6,77.5,27.2,77.5z"/>
			<path class="st3" d="M23.6,81.2c-0.3,0-0.6-0.3-0.6-0.6v-6c0-0.3,0.3-0.6,0.6-0.6c0.3,0,0.6,0.3,0.6,0.6v6
				C24.2,80.9,23.9,81.2,23.6,81.2z"/>
			<path class="st3" d="M23.3,75.1c-0.2,0-0.4-0.1-0.5-0.3l-3-4.2c-0.2-0.3-0.1-0.6,0.1-0.8c0.3-0.2,0.6-0.1,0.8,0.1l3,4.2
				c0.2,0.3,0.1,0.6-0.1,0.8C23.5,75.1,23.4,75.1,23.3,75.1z"/>
			<path class="st3" d="M23.9,75.1c-0.1,0-0.2,0-0.4-0.1c-0.3-0.2-0.3-0.6-0.1-0.8l3-4.2c0.2-0.3,0.6-0.3,0.8-0.1
				c0.3,0.2,0.3,0.6,0.1,0.8l-3,4.2C24.3,75,24.1,75.1,23.9,75.1z"/>
		</g>
	</g>
	<g>
		<path class="st4" d="M127.3,29.8c0-0.2-0.2-0.4-0.4-0.4h-15.2c-0.2,0-0.4,0.2-0.4,0.4s0.2,0.4,0.4,0.4h15.2
			C127.1,30.1,127.3,30,127.3,29.8z"/>
		<path class="st4" d="M111.7,33.7c-0.2,0-0.4,0.2-0.4,0.4s0.2,0.4,0.4,0.4h11c0.2,0,0.4-0.2,0.4-0.4s-0.2-0.4-0.4-0.4H111.7z"/>
		<path class="st4" d="M114.4,22.2l-0.9,3.3c-0.1,0.2,0,0.5,0.2,0.7c0.1,0.1,0.3,0.2,0.5,0.2c0.1,0,0.1,0,0.2,0l3.5-0.9
			c0.1,0,0.3-0.1,0.3-0.2l12.6-11.9c0.1-0.1,0.2-0.3,0.2-0.5s-0.1-0.4-0.2-0.5l-2.6-2.4c-0.3-0.3-0.8-0.3-1.1,0l-12.6,11.9
			C114.5,22,114.4,22.1,114.4,22.2z M126.7,12.5l1-1l1.5,1.4l-1,1L126.7,12.5z M115.3,24.7l0.5-1.9l9.8-9.3l1.5,1.4l-9.8,9.3
			L115.3,24.7z"/>
		<path class="st4" d="M130.3,16.5c-0.4,0-0.8,0.3-0.8,0.7v20H109V13.6h12.2c0.4,0,0.8-0.3,0.8-0.7s-0.3-0.7-0.8-0.7h-12.9
			c-0.4,0-0.8,0.3-0.8,0.7V38c0,0.4,0.3,0.7,0.8,0.7h22.1c0.4,0,0.8-0.3,0.8-0.7V17.3C131.1,16.9,130.8,16.5,130.3,16.5z"/>
	</g>
	<g>
		<g>
			<g>
				<path class="st4" d="M179.3,33.9c-3-1.3-3.1-7.1-3.1-7.3v-3.9c0-3.7-2.3-6.9-5.5-8.3c0-1.9-1.6-3.5-3.5-3.5s-3.5,1.6-3.5,3.5
					c-3.2,1.4-5.5,4.6-5.5,8.3v3.9c0,0.1-0.1,5.9-3.1,7.3c-0.3,0.2-0.5,0.5-0.4,0.9s0.4,0.6,0.8,0.6h7.6c0.2,0.9,0.6,1.6,1.2,2.3
					c0.8,0.9,1.9,1.3,3,1.3s2.2-0.5,3-1.3c0.6-0.6,1-1.4,1.2-2.3h7.6c0.4,0,0.7-0.3,0.8-0.6C179.8,34.4,179.6,34,179.3,33.9z
					 M175.3,31.1c0.3,1,0.8,1.9,1.4,2.7h-19.1c0.6-0.8,1.1-1.7,1.4-2.7C159,31.1,175.3,31.1,175.3,31.1z M167.2,12.5
					c0.9,0,1.6,0.6,1.8,1.4c-0.6-0.1-1.2-0.2-1.8-0.2s-1.2,0.1-1.8,0.2C165.5,13.1,166.3,12.5,167.2,12.5z M159.7,26.6v-3.9
					c0-4.1,3.3-7.4,7.4-7.4c4.1,0,7.4,3.3,7.4,7.4v3.9c0,0.1,0,1.4,0.3,2.9h-15.5C159.7,28,159.7,26.7,159.7,26.6z M167.2,37.4
					c-1.2,0-2.3-0.9-2.6-2h5.2C169.4,36.5,168.4,37.4,167.2,37.4z"/>
				<path class="st4" d="M167.2,16.4c-3.4,0-6.2,2.8-6.2,6.2c0,0.4,0.4,0.8,0.8,0.8c0.4,0,0.8-0.4,0.8-0.8c0-2.5,2.1-4.6,4.6-4.6
					c0.4,0,0.8-0.4,0.8-0.8C167.9,16.8,167.6,16.4,167.2,16.4z"/>
			</g>
		</g>
	</g>
	<g>
		<path class="st4" d="M228.1,11.8h-24.6c-0.5,0-0.9,0.2-0.9,0.7v4.8c0,0.5,0.4,0.7,0.9,0.7h1.5v11.1c0,0.5,0.4,0.9,0.9,0.9h3.4
			l-4.2,6.6c-0.3,0.4-0.2,1,0.3,1.3c0.2,0.1,0.3,0.1,0.5,0.1c0.3,0,0.6-0.2,0.8-0.4l4.9-7.6h8.5l4.9,7.6c0.2,0.3,0.5,0.4,0.8,0.4
			c0.2,0,0.3,0,0.5-0.1c0.4-0.3,0.6-0.8,0.3-1.3l-4.2-6.6h3.4c0.5,0,0.9-0.4,0.9-0.9V18h1.5c0.5,0,0.9-0.2,0.9-0.7v-4.8
			C229,12,228.6,11.8,228.1,11.8z M225,28.2v0.2h-4c0,0,0,0-0.1,0h-2.1h-0.1H211c0,0,0,0-0.1,0h-4.4V18H225V28.2z M227.1,16.4h-1.5
			h-19.7h-1.5v-2.9l0,0l0,0h22.7V16.4z"/>
		<path class="st4" d="M211.4,26.3c0.2,0,0.5-0.1,0.7-0.3l1.5-1.5l3.1,0.8c0.3,0.1,0.7,0,1-0.3l3.1-3.7c0.3-0.4,0.3-1-0.1-1.3
			c-0.2-0.1-0.8-0.3-1.1,0.1l-2.7,3.5l-3-0.8c-0.3-0.1-0.7-0.2-0.9,0l-1.9,1.9c-0.3,0.3-0.5,0.6-0.4,0.9S211,26.1,211.4,26.3
			C211.2,26.3,211.3,26.3,211.4,26.3z"/>
	</g>
	<g>
		<g>
			<path class="st4" d="M311.3,39.5c8.1,0,14.7-6.6,14.7-14.7s-6.6-14.7-14.7-14.7s-14.7,6.6-14.7,14.7S303.2,39.5,311.3,39.5z
				 M311.3,12.1c7,0,12.6,5.7,12.6,12.6s-5.7,12.6-12.6,12.6c-7,0-12.6-5.7-12.6-12.6S304.3,12.1,311.3,12.1z"/>
			<path class="st4" d="M308.8,31.3c-0.6,0-1,0.5-1,1c0,0.6,0.5,1,1,1h6.8c0.6,0,1-0.5,1-1c0-0.6-0.5-1-1-1h-2.4v-9.1
				c0-0.6-0.5-1-1-1h-3.4c-0.6,0-1,0.5-1,1c0,0.6,0.5,1,1,1h2.4v8.1H308.8z"/>
			<circle class="st4" cx="310.8" cy="17.7" r="1.7"/>
		</g>
	</g>
	<g>
		<path class="st4" d="M372.5,27.3c-0.8-1.8-1.8-3.5-3.2-5.1c-1.6-2-3.3-3.3-4.1-3.9l3.1-5.8c0.2-0.3,0.1-0.6-0.1-0.9
			c-0.8-0.8-1.7-1.2-2.6-1.2s-1.7,0.3-2.4,0.6c-0.6,0.2-1.1,0.4-1.5,0.4c-0.1,0-0.2,0-0.4-0.1c-1.5-0.5-2.6-0.9-3.7-0.9
			c-1.4,0-2.6,0.6-3.7,1.7c-0.2,0.2-0.3,0.6-0.1,0.9l3.4,5.1c-0.8,0.6-2.4,1.9-4,3.9c-1.3,1.6-2.4,3.3-3.2,5.1c-1,2.2-1.5,4.6-1.5,7
			c0,3.2,2.6,5.7,5.7,5.7h14c3.2,0,5.7-2.6,5.7-5.7C373.9,31.9,373.4,29.6,372.5,27.3z M355.4,12.9c0.7-0.6,1.4-0.9,2.2-0.9
			c0.9,0,1.9,0.3,3.2,0.8c0.3,0.1,0.6,0.1,0.9,0.1c0.7,0,1.4-0.3,2.1-0.6c0.6-0.3,1.2-0.5,1.8-0.5c0.3,0,0.7,0,1.2,0.4l-3,5.5h-5.1
			L355.4,12.9z M368.2,38.5h-14c-2.3,0-4.3-1.9-4.3-4.3c0-3.9,1.4-7.7,4.3-11.1c1.8-2.2,3.6-3.5,4.2-3.9h5.5
			c0.6,0.4,2.4,1.7,4.2,3.9c2.8,3.4,4.3,7.2,4.3,11.1C372.4,36.6,370.5,38.5,368.2,38.5z"/>
		<g>
			<path class="st4" d="M358.8,32.1h1.5v-1h-1.5c-0.6,0-0.9-0.2-0.9-0.6s0.3-0.6,0.9-0.6h0.8l-2-3.1c-0.2-0.2-0.3-0.4-0.3-0.5
				s-0.1-0.2-0.1-0.4c0-0.2,0.1-0.4,0.2-0.6c0.1-0.1,0.3-0.2,0.5-0.2s0.4,0.1,0.5,0.2s0.3,0.4,0.5,0.7l2.1,3.3l1.9-3.2
				c0.1-0.1,0.1-0.3,0.2-0.4s0.2-0.2,0.2-0.3c0.1-0.1,0.2-0.2,0.3-0.2c0.1-0.1,0.2-0.1,0.4-0.1c0.2,0,0.4,0.1,0.5,0.2
				s0.2,0.3,0.2,0.5s0,0.3-0.1,0.4s-0.1,0.3-0.3,0.5l-1.9,3.1h0.8c0.6,0,0.9,0.2,0.9,0.6s-0.3,0.6-0.9,0.6h-1.5v1h1.5
				c0.6,0,0.9,0.2,0.9,0.6s-0.3,0.6-0.9,0.6h-1.5v0.5c0,0.9-0.3,1.3-0.9,1.3s-0.9-0.4-0.9-1.3v-0.5h-1.5c-0.6,0-0.9-0.2-0.9-0.6
				C357.9,32.3,358.2,32.1,358.8,32.1z"/>
		</g>
	</g>
	<g>
		<rect x="250" y="12" class="st4" width="14.1" height="2.3"/>
		<rect x="250" y="17.7" class="st4" width="20.3" height="2.3"/>
		<rect x="250" y="23.3" class="st4" width="25" height="2.3"/>
		<rect x="250" y="29" class="st4" width="20.3" height="2.3"/>
		<rect x="250" y="34.7" class="st4" width="14.8" height="2.3"/>
	</g>
	<path class="st0" d="M399.4,25.3l15.2-15.2c0.6-0.6,0.6-1.5,0-2c-0.6-0.6-1.5-0.6-2,0l-16.2,16.2c-0.6,0.6-0.6,1.5,0,2l16.2,16.2
		c0.3,0.3,0.7,0.4,1,0.4s0.7-0.1,1-0.4c0.6-0.6,0.6-1.5,0-2L399.4,25.3z"/>
	<g>
		<path class="st3" d="M445.8,29c-0.2,0-0.5-0.1-0.6-0.3c-0.4-0.3-0.4-0.9,0-1.3l9.1-9.1c0.4-0.4,0.9-0.4,1.3,0
			c0.4,0.3,0.4,0.9,0,1.3l-9.1,9.1C446.2,29,446,29,445.8,29z"/>
		<path class="st3" d="M464,29c-0.2,0-0.5-0.1-0.6-0.3l-9.1-9.1c-0.4-0.3-0.4-0.9,0-1.3s0.9-0.4,1.3,0l9.1,9.1
			c0.4,0.3,0.4,0.9,0,1.3C464.4,29,464.2,29,464,29z"/>
	</g>
	<g id="图层_2">
		<g id="footer">
			<circle class="st5" cx="417" cy="215.4" r="1.7"/>
			<circle class="st5" cx="407.4" cy="215.4" r="1.7"/>
			<circle class="st5" cx="397.8" cy="215.6" r="1.7"/>
			<path class="st5" d="M407.4,235.4c-11,0-20-9-20-20s9-20,20-20s20,9,20,20S418.4,235.4,407.4,235.4z M407.4,196.8
				c-10.2,0-18.6,8.3-18.6,18.6s8.3,18.6,18.6,18.6s18.6-8.3,18.6-18.6S417.6,196.8,407.4,196.8z"/>
		</g>
	</g>
	<g id="图层_2_1_">
		<g id="footer_1_">
			<path class="st6" d="M454,235.4c-11,0-20-9-20-20s9-20,20-20s20,9,20,20S465,235.4,454,235.4z M454,196.8
				c-10.2,0-18.6,8.3-18.6,18.6S443.8,234,454,234s18.6-8.3,18.6-18.6S464.2,196.8,454,196.8z"/>
			<path class="st6" d="M453.4,203.3h0.8c0.4,0,0.8,0.4,0.8,0.8v17.5c0,0.4-0.4,0.8-0.8,0.8h-0.8c-0.4,0-0.8-0.4-0.8-0.8v-17.7
				C452.7,203.4,453,203.3,453.4,203.3z"/>
			<circle class="st7" cx="453.8" cy="226.2" r="1.3"/>
		</g>
	</g>
	<g>
		<path class="st3" d="M373.7,209.7c-3.5-3.5-8.1-5.4-13.1-5.4s-9.6,1.9-13.1,5.4l-4.8,4.8l4.9,4.9c3.5,3.5,8.1,5.4,13.1,5.4
			s9.6-1.9,13.1-5.4l4.8-4.8L373.7,209.7z M372.9,218.6c-3.3,3.3-7.6,5-12.2,5s-9-1.8-12.2-5l-4.1-4.1l4-4c3.3-3.3,7.6-5,12.2-5
			s9,1.8,12.2,5l4.1,4.1L372.9,218.6z"/>
		<path class="st3" d="M360.6,206.7c-4.4,0-7.9,3.5-7.9,7.9s3.5,7.9,7.9,7.9s7.9-3.5,7.9-7.9S364.9,206.7,360.6,206.7z M360.6,211.6
			c-1.7,0-3,1.3-3,3c0,0.4-0.2,0.6-0.6,0.6s-0.6-0.2-0.6-0.6c0-2.4,1.9-4.3,4.3-4.3c0.4,0,0.6,0.2,0.6,0.6S360.9,211.6,360.6,211.6z
			"/>
	</g>
	<g>
		<path class="st3" d="M324.7,209.9c-1.3-1.3-2.7-2.4-4.3-3.2l5.8-5.8c0.2-0.2,0.2-0.6,0-0.9c-0.2-0.2-0.6-0.2-0.9,0l-6.1,6.1
			c-2.4-1.1-5-1.7-7.7-1.7c-4.9,0-9.6,1.9-13.1,5.4l-4.8,4.9l4.9,4.9c1.2,1.2,2.6,2.2,4.1,3.1l-5.5,5.5c-0.2,0.2-0.2,0.6,0,0.9
			c0.1,0.1,0.3,0.2,0.4,0.2s0.3-0.1,0.4-0.2l5.8-5.8c2.4,1.2,5.1,1.8,7.9,1.8c4.9,0,9.6-1.9,13.1-5.4l4.8-4.8L324.7,209.9z
			 M303.5,221.8c-1.5-0.8-2.9-1.8-4.1-3l-4.1-4.1l4-4c3.3-3.3,7.6-5,12.2-5c2.4,0,4.7,0.5,6.8,1.4L303.5,221.8z M323.9,218.8
			c-3.3,3.3-7.6,5-12.2,5c-2.4,0-4.8-0.5-7-1.5l14.8-14.8c1.6,0.8,3,1.9,4.3,3.2l4.1,4.1L323.9,218.8z"/>
		<path class="st3" d="M311.6,206.9c-4.4,0-7.9,3.5-7.9,7.9c0,1.5,0.4,3,1.2,4.2l10.9-10.9C314.6,207.3,313.1,206.9,311.6,206.9z"/>
		<path class="st3" d="M307.3,221.4c1.2,0.8,2.7,1.3,4.3,1.3c4.4,0,7.9-3.5,7.9-7.9c0-1.6-0.5-3.1-1.3-4.3L307.3,221.4z"/>
	</g>
	<g id="圖層_2">
		<g id="Layer_1">
			<path class="st3" d="M266.5,215.3l8.2-9.6c0.9-1,0.8-2.6-0.3-3.5c-1-0.9-2.6-0.8-3.5,0.3l-7.7,9l-7.8-9c-0.9-1.1-2.5-1.2-3.5-0.3
				c-1.1,0.9-1.2,2.5-0.3,3.5c0,0,0,0,0.1,0.1l8.2,9.6l-8.2,9.6c-0.9,1-0.8,2.6,0.2,3.5s2.6,0.8,3.5-0.2c0,0,0,0,0.1-0.1l7.8-9
				l7.7,9c0.9,1,2.5,1.1,3.5,0.2c1-0.9,1.1-2.4,0.3-3.4L266.5,215.3z"/>
		</g>
	</g>
	<path id="购彩大厅" class="st6" d="M150.7,70.7c-0.4,0-0.8-0.2-1.1-0.5c-0.5-0.5-0.4-1.3,0.1-1.8c0,0,0,0,0.1,0l15.8-13
		c1.5-1.1,3.5-1.1,4.9,0l15.8,12.9c0.6,0.5,0.6,1.3,0.2,1.9c-0.5,0.6-1.3,0.6-1.9,0.2c0,0,0,0,0,0l-15.6-12.6
		c-0.5-0.3-1.1-0.3-1.6,0l-15.8,12.9C151.3,70.7,151,70.8,150.7,70.7L150.7,70.7L150.7,70.7z M180.8,89.5h-8.7
		c-0.7,0-1.3-0.5-1.3-1.2c0-0.1,0-0.1,0-0.2v-6.3c0-0.9-1.6-1.9-2.8-1.9s-2.7,0.8-2.7,1.9v6.3c0,0.7-0.5,1.3-1.2,1.3
		c-0.1,0-0.1,0-0.2,0h-8.4c-1.8,0.1-3.4-1.4-3.5-3.2c0,0,0-0.1,0-0.1V73.4c0-0.7,0.6-1.4,1.3-1.4c0.7,0,1.4,0.6,1.4,1.3
		c0,0,0,0,0,0.1v12.8c0,0.4,0.3,0.7,0.7,0.7c0,0,0.1,0,0.1,0h7.2v-5c0-2.7,2.8-4.6,5.3-4.6c2.5,0,5.5,1.9,5.5,4.6v5h7.4
		c0.4,0,0.7,0,0.7-0.8V73.4c0-0.7,0.6-1.3,1.3-1.3c0.7,0,1.3,0.6,1.3,1.3v12.8c0,1.8-1.5,3.3-3.3,3.4
		C180.9,89.5,180.8,89.5,180.8,89.5L180.8,89.5L180.8,89.5z"/>
	<g>
		<path id="圆角矩形_6" class="st8" d="M207.5,55.6h-2.4c-3.3,0-6,2.7-6,6c0,0,0,0,0,0V84c0,3.3,2.7,6,6,6c0,0,0,0,0,0h21.7
			c3.3,0,6-2.7,6-6c0,0,0,0,0,0V61.6c0-3.3-2.7-6-6-6h0h-2.4"/>
		<path id="圆角矩形_6_拷贝_4" class="st8" d="M213,55.6h5.9"/>
		<path id="圆角矩形_6_拷贝" class="st9" d="M207.4,64.6H225"/>
		<path id="圆角矩形_6_拷贝_2" class="st9" d="M207.4,71.9H225"/>
		<path id="圆角矩形_6_拷贝_3" class="st9" d="M207.4,79.1H225"/>
	</g>
	<g>
		<path id="椭圆_2" class="st8" d="M277.2,61.3c6.3,7.3,5.5,18.3-1.8,24.6s-18.3,5.5-24.6-1.8c-6.3-7.3-5.5-18.3,1.8-24.6
			c5.4-4.7,13.1-5.6,19.4-2.3"/>
		<path id="形状_4" class="st8" d="M256.5,81.5h15"/>
		<path id="_08" class="st6" d="M261.2,67c0-1.4-0.7-2.1-1.9-2.1c-1.2,0-1.8,0.7-1.9,2.1v5.8c0,1.4,0.6,2.1,1.9,2.1
			c1.2,0,1.8-0.7,1.9-2.1V67z M255.6,66.9c-0.1-1.1,0.4-2.2,1.2-2.9c0.7-0.7,1.6-1,2.6-1c1,0,1.9,0.3,2.6,1c0.8,0.8,1.2,1.8,1.1,2.9
			V73c0,1.1-0.4,2.2-1.1,2.9c-1.5,1.5-3.9,1.4-5.4-0.1c-0.7-0.7-1.1-1.8-1-2.8L255.6,66.9L255.6,66.9z M266.7,66.9
			c0,0.6,0.2,1.1,0.6,1.5c0.4,0.3,0.8,0.5,1.3,0.5c0.5,0,1-0.2,1.3-0.5c0.8-0.8,0.8-2.1,0-2.9c-0.4-0.3-0.8-0.5-1.3-0.5
			c-0.5,0-1,0.2-1.3,0.5C266.9,65.8,266.7,66.3,266.7,66.9L266.7,66.9z M264.5,72.8c0-1.2,0.6-2.4,1.6-3.1c-0.4-0.3-0.7-0.8-1-1.2
			c-0.3-0.5-0.4-1-0.4-1.5c0-1.1,0.4-2.1,1.1-2.8c0.7-0.7,1.7-1.2,2.7-1.1c1,0,2,0.4,2.7,1.1c0.7,0.8,1.1,1.8,1.1,2.8
			c0,0.5-0.1,1.1-0.4,1.6c-0.3,0.5-0.6,0.9-1,1.2c1,0.7,1.7,1.8,1.6,3.1c0,1.1-0.4,2.2-1.2,3c-0.8,0.8-1.8,1.2-2.9,1.2
			C266.4,76.9,264.5,75.1,264.5,72.8C264.5,72.8,264.5,72.8,264.5,72.8L264.5,72.8L264.5,72.8z M266.4,72.8c0,0.6,0.2,1.1,0.7,1.6
			c0.4,0.4,0.9,0.6,1.5,0.6c0.6,0,1.1-0.2,1.5-0.6c0.9-0.9,0.9-2.3,0-3.1c-0.4-0.4-1-0.6-1.5-0.6c-0.6,0-1.1,0.2-1.5,0.6
			C266.7,71.6,266.4,72.2,266.4,72.8L266.4,72.8z"/>
	</g>
	<path id="个人中心" class="st6" d="M312.5,76.6c5.2,0,9.5-4.2,9.5-10.8s-4.3-11.4-9.5-11.4c-2.6-0.2-5.2,0.9-6.8,3
		c-1.8,2.4-2.8,5.4-2.7,8.4C303,72.4,307.3,76.6,312.5,76.6L312.5,76.6L312.5,76.6z M312.5,56.6c4.1,0,7.4,3.8,7.4,9.2
		s-3.3,8.6-7.4,8.6s-7.4-3.2-7.4-8.6S308.4,56.6,312.5,56.6L312.5,56.6z M319.9,75.7c-0.6,0.1-1,0.6-1,1.2c0.1,0.5,0.5,0.9,1,1
		c4.1,0,8.6,4.1,8.6,8.3c0,0.6-0.5,1.1-1.1,1.1h-29.9c-0.6,0-1.1-0.5-1.1-1.1c0-4.2,4.5-8.3,8.6-8.3c0.6-0.1,1-0.6,1-1.2
		c-0.1-0.5-0.5-0.9-1-1c-5.2,0-10.7,5-10.7,10.5c0,1.8,1.4,3.2,3.2,3.3h29.9c1.8,0,3.2-1.5,3.2-3.3
		C330.6,80.7,325.1,75.7,319.9,75.7L319.9,75.7L319.9,75.7z"/>
	<path id="购彩大厅_1_" class="st5" d="M150.7,118.7c-0.4,0-0.8-0.2-1.1-0.5c-0.5-0.5-0.4-1.3,0.1-1.8c0,0,0,0,0.1,0l15.8-13
		c1.5-1.1,3.5-1.1,4.9,0l15.8,12.9c0.6,0.5,0.6,1.3,0.2,1.9c-0.5,0.6-1.3,0.6-1.9,0.2c0,0,0,0,0,0l-15.6-12.6
		c-0.5-0.3-1.1-0.3-1.6,0l-15.8,12.9C151.3,118.7,151,118.8,150.7,118.7L150.7,118.7L150.7,118.7z M180.8,137.5h-8.7
		c-0.7,0-1.3-0.5-1.3-1.2c0-0.1,0-0.1,0-0.2v-6.3c0-0.9-1.6-1.9-2.8-1.9s-2.7,0.8-2.7,1.9v6.3c0,0.7-0.5,1.3-1.2,1.3
		c-0.1,0-0.1,0-0.2,0h-8.4c-1.8,0.1-3.4-1.4-3.5-3.2c0,0,0-0.1,0-0.1v-12.8c0-0.7,0.6-1.4,1.3-1.4c0.7,0,1.4,0.6,1.4,1.3
		c0,0,0,0,0,0.1v12.8c0,0.4,0.3,0.7,0.7,0.7c0,0,0.1,0,0.1,0h7.2v-5c0-2.7,2.8-4.6,5.3-4.6c2.5,0,5.5,1.9,5.5,4.6v5h7.4
		c0.4,0,0.7,0,0.7-0.8v-12.6c0-0.7,0.6-1.3,1.3-1.3c0.7,0,1.3,0.6,1.3,1.3v12.8c0,1.8-1.5,3.3-3.3,3.4
		C180.9,137.5,180.8,137.5,180.8,137.5L180.8,137.5L180.8,137.5z"/>
	<g>
		<path id="圆角矩形_6_1_" class="st10" d="M207.5,103.6h-2.4c-3.3,0-6,2.7-6,6c0,0,0,0,0,0V132c0,3.3,2.7,6,6,6c0,0,0,0,0,0
			h21.7c3.3,0,6-2.7,6-6c0,0,0,0,0,0v-22.3c0-3.3-2.7-6-6-6h0h-2.4"/>
		<path id="圆角矩形_6_拷贝_4_1_" class="st10" d="M213,103.6h5.9"/>
		<path id="圆角矩形_6_拷贝_1_" class="st11" d="M207.4,112.6H225"/>
		<path id="圆角矩形_6_拷贝_2_1_" class="st11" d="M207.4,119.9H225"/>
		<path id="圆角矩形_6_拷贝_3_1_" class="st11" d="M207.4,127.1H225"/>
	</g>
	<g>
		<path id="椭圆_2_1_" class="st10" d="M277.2,109.3c6.3,7.3,5.5,18.3-1.8,24.6s-18.3,5.5-24.6-1.8c-6.3-7.3-5.5-18.3,1.8-24.6
			c5.4-4.7,13.1-5.6,19.4-2.3"/>
		<path id="形状_4_1_" class="st10" d="M256.5,129.5h15"/>
		<path id="_08_1_" class="st5" d="M261.2,115c0-1.4-0.7-2.1-1.9-2.1c-1.2,0-1.8,0.7-1.9,2.1v5.8c0,1.4,0.6,2.1,1.9,2.1
			c1.2,0,1.8-0.7,1.9-2.1V115z M255.6,114.9c-0.1-1.1,0.4-2.2,1.2-2.9c0.7-0.7,1.6-1,2.6-1c1,0,1.9,0.3,2.6,1
			c0.8,0.8,1.2,1.8,1.1,2.9v6.1c0,1.1-0.4,2.2-1.1,2.9c-1.5,1.5-3.9,1.4-5.4-0.1c-0.7-0.7-1.1-1.8-1-2.8L255.6,114.9L255.6,114.9z
			 M266.7,114.9c0,0.6,0.2,1.1,0.6,1.5c0.4,0.3,0.8,0.5,1.3,0.5c0.5,0,1-0.2,1.3-0.5c0.8-0.8,0.8-2.1,0-2.9
			c-0.4-0.3-0.8-0.5-1.3-0.5c-0.5,0-1,0.2-1.3,0.5C266.9,113.8,266.7,114.3,266.7,114.9L266.7,114.9z M264.5,120.8
			c0-1.2,0.6-2.4,1.6-3.1c-0.4-0.3-0.7-0.8-1-1.2c-0.3-0.5-0.4-1-0.4-1.5c0-1.1,0.4-2.1,1.1-2.8c0.7-0.7,1.7-1.2,2.7-1.1
			c1,0,2,0.4,2.7,1.1c0.7,0.8,1.1,1.8,1.1,2.8c0,0.5-0.1,1.1-0.4,1.6c-0.3,0.5-0.6,0.9-1,1.2c1,0.7,1.7,1.8,1.6,3.1
			c0,1.1-0.4,2.2-1.2,3c-0.8,0.8-1.8,1.2-2.9,1.2C266.4,124.9,264.5,123.1,264.5,120.8C264.5,120.8,264.5,120.8,264.5,120.8
			L264.5,120.8L264.5,120.8z M266.4,120.8c0,0.6,0.2,1.1,0.7,1.6c0.4,0.4,0.9,0.6,1.5,0.6c0.6,0,1.1-0.2,1.5-0.6
			c0.9-0.9,0.9-2.3,0-3.1c-0.4-0.4-1-0.6-1.5-0.6c-0.6,0-1.1,0.2-1.5,0.6C266.7,119.6,266.4,120.2,266.4,120.8L266.4,120.8z"/>
	</g>
	<path id="个人中心_1_" class="st5" d="M312.5,124.6c5.2,0,9.5-4.2,9.5-10.8s-4.3-11.4-9.5-11.4c-2.6-0.2-5.2,0.9-6.8,3
		c-1.8,2.4-2.8,5.4-2.7,8.4C303,120.4,307.3,124.6,312.5,124.6L312.5,124.6L312.5,124.6z M312.5,104.6c4.1,0,7.4,3.8,7.4,9.2
		s-3.3,8.6-7.4,8.6s-7.4-3.2-7.4-8.6S308.4,104.6,312.5,104.6L312.5,104.6z M319.9,123.7c-0.6,0.1-1,0.6-1,1.2c0.1,0.5,0.5,0.9,1,1
		c4.1,0,8.6,4.1,8.6,8.3c0,0.6-0.5,1.1-1.1,1.1h-29.9c-0.6,0-1.1-0.5-1.1-1.1c0-4.2,4.5-8.3,8.6-8.3c0.6-0.1,1-0.6,1-1.2
		c-0.1-0.5-0.5-0.9-1-1c-5.2,0-10.7,5-10.7,10.5c0,1.8,1.4,3.2,3.2,3.3h29.9c1.8,0,3.2-1.5,3.2-3.3
		C330.6,128.7,325.1,123.7,319.9,123.7L319.9,123.7L319.9,123.7z"/>
</g>
<g id="圖層_2_1_">
</g>
</svg>
